<svg width="49" height="53" viewBox="0 0 49 53" fill="none" xmlns="http://www.w3.org/2000/svg">
<g filter="url(#filter0_i_2:26)">
<path d="M3.43848 40.058C3.43848 43.3332 5.86776 45.9877 8.86432 45.9877H40.0923C43.0894 45.9877 45.5183 43.3329 45.5183 40.058V5.92991C45.5183 2.65454 43.089 0 40.0925 0H8.8645C5.86744 0 3.43848 2.6549 3.43848 5.92973V40.0578V40.058Z" fill="#563D7C"/>
<path d="M20.8882 20.3419V13.8295H26.1336C26.6333 13.8295 27.1149 13.875 27.5788 13.966C28.0427 14.0569 28.453 14.2193 28.81 14.4534C29.1666 14.6874 29.4521 15.0125 29.6664 15.4283C29.8803 15.8443 29.9875 16.3773 29.9875 17.0271C29.9875 18.1971 29.6664 19.0421 29.0239 19.562C28.3818 20.082 27.561 20.3419 26.5618 20.3419H20.8882ZM15.2859 9.07178V36.9159H27.6323C28.7743 36.9159 29.8864 36.7599 30.9688 36.4479C32.0513 36.1359 33.0147 35.655 33.8592 35.005C34.7036 34.3551 35.3757 33.5166 35.8753 32.4898C36.375 31.4627 36.6246 30.2473 36.6246 28.8434C36.6246 27.1014 36.238 25.6132 35.4649 24.3783C34.6918 23.1433 33.5201 22.2789 31.95 21.7848C33.0919 21.187 33.9544 20.4199 34.5372 19.484C35.12 18.5481 35.4114 17.3783 35.4114 15.9742C35.4114 14.6743 35.2151 13.5825 34.8226 12.6985C34.4301 11.8147 33.8769 11.1061 33.1632 10.5732C32.4497 10.0402 31.5933 9.65669 30.5941 9.42279C29.595 9.18864 28.4887 9.07178 27.2755 9.07178H15.2859ZM20.8882 32.1581V24.5147H26.99C28.2032 24.5147 29.1786 24.82 29.9162 25.4311C30.6536 26.0421 31.0225 27.0624 31.0225 28.4924C31.0225 29.2205 30.9093 29.8183 30.6833 30.2863C30.4573 30.7542 30.154 31.1248 29.7734 31.3977C29.3928 31.6708 28.9526 31.8657 28.453 31.9828C27.9534 32.0996 27.4302 32.1581 26.883 32.1581H20.8882Z" fill="white"/>
</g>
<defs>
<filter id="filter0_i_2:26" x="3.43848" y="0" width="42.0798" height="49.9878" filterUnits="userSpaceOnUse" color-interpolation-filters="sRGB">
<feFlood flood-opacity="0" result="BackgroundImageFix"/>
<feBlend mode="normal" in="SourceGraphic" in2="BackgroundImageFix" result="shape"/>
<feColorMatrix in="SourceAlpha" type="matrix" values="0 0 0 0 0 0 0 0 0 0 0 0 0 0 0 0 0 0 127 0" result="hardAlpha"/>
<feOffset dy="4"/>
<feGaussianBlur stdDeviation="2"/>
<feComposite in2="hardAlpha" operator="arithmetic" k2="-1" k3="1"/>
<feColorMatrix type="matrix" values="0 0 0 0 0 0 0 0 0 0 0 0 0 0 0 0 0 0 0.25 0"/>
<feBlend mode="normal" in2="shape" result="effect1_innerShadow_2:26"/>
</filter>
</defs>
</svg>
