<svg width="98" height="105" viewBox="0 0 98 105" fill="none" xmlns="http://www.w3.org/2000/svg">
<g clip-path="url(#clip0_2:10)">
<path d="M0 91.3392C0 98.8072 5.65181 104.86 12.6234 104.86H85.2763C92.249 104.86 97.9 98.8064 97.9 91.3392V13.5212C97.9 6.0528 92.2482 0 85.2766 0H12.6237C5.65105 0 0 6.05362 0 13.5208V91.3388V91.3392Z" fill="#563D7C"/>
<path d="M40.5972 46.3833V31.5338H52.8007C53.9632 31.5338 55.0837 31.6374 56.1629 31.8451C57.2421 32.0523 58.197 32.4226 59.0273 32.9564C59.8571 33.4901 60.5214 34.2311 61.0197 35.1793C61.5176 36.128 61.767 37.3433 61.767 38.8248C61.767 41.4926 61.0197 43.4194 59.5252 44.6048C58.0311 45.7906 56.1216 46.3833 53.7969 46.3833H40.5972V46.3833ZM27.5631 20.6853V84.1747H56.2876C58.9443 84.1747 61.5318 83.8192 64.05 83.1077C66.5683 82.3962 68.8097 81.2997 70.7745 79.8177C72.739 78.3358 74.3028 76.4237 75.465 74.0824C76.6275 71.7406 77.2084 68.9692 77.2084 65.7681C77.2084 61.7961 76.309 58.4025 74.5104 55.5869C72.7115 52.7708 69.9856 50.7998 66.3327 49.6733C68.9894 48.3102 70.996 46.5611 72.352 44.4271C73.7077 42.293 74.3858 39.6256 74.3858 36.4241C74.3858 33.4602 73.9291 30.9706 73.0159 28.9549C72.1027 26.9396 70.8158 25.3241 69.1554 24.1088C67.4953 22.8935 65.5028 22.019 63.1781 21.4857C60.8537 20.9519 58.28 20.6853 55.4574 20.6853H27.5631V20.6853ZM40.5972 73.3262V55.8978H54.7931C57.6158 55.8978 59.885 56.5941 61.601 57.9876C63.3165 59.3807 64.1747 61.7072 64.1747 64.9677C64.1747 66.6279 63.9116 67.9911 63.3858 69.0581C62.8599 70.1251 62.1544 70.9702 61.2687 71.5923C60.3834 72.215 59.3592 72.6594 58.197 72.9264C57.0345 73.1927 55.8172 73.3262 54.5441 73.3262H40.5972V73.3262Z" fill="white"/>
</g>
<defs>
<clipPath id="clip0_2:10">
<rect width="97.9" height="104.86" fill="white"/>
</clipPath>
</defs>
</svg>
