<svg width="280" height="60" viewBox="0 0 280 60" fill="none" xmlns="http://www.w3.org/2000/svg">
<g clip-path="url(#clip0_2:38)">
<path d="M123.239 44.5665C122.199 46.0459 120.188 47.1838 117.434 47.1838C113.639 47.1838 110.743 45.287 110.049 41.9381H127.143C127.226 41.4581 127.267 40.9735 127.268 40.4871C127.268 35.279 123.276 30.6643 117.11 30.6643C110.745 30.6643 106.422 34.9437 106.422 40.4512C106.422 46.0267 110.788 50.2371 117.354 50.2371C121.434 50.2371 124.534 48.562 126.329 46.0267L123.239 44.5665ZM117.107 33.7155C120.166 33.7155 123.063 35.4226 123.675 39.1106H110.049C110.62 35.874 113.273 33.7155 117.107 33.7155" fill="#3E64B8"/>
<path d="M101.184 22.5904H104.732V49.752H101.184V22.5904Z" fill="#3E64B8"/>
<path d="M147.003 38.3299V49.751H143.453V38.515C143.453 35.4646 141.537 33.7527 138.395 33.7527C135.131 33.7527 132.48 35.5024 132.48 39.8921V49.751H128.93V31.151H132.48V33.8293C133.989 31.6338 136.233 30.6674 139.093 30.6674C143.865 30.6674 147.007 33.5686 147.007 38.3315" fill="#3E64B8"/>
<path d="M170.123 22.5909V49.7522H166.575V46.5508C164.942 48.8272 162.332 50.2361 158.864 50.2361C153.193 50.2361 148.543 45.9566 148.543 40.4491C148.543 34.9436 153.193 30.6633 158.864 30.6633C162.331 30.6633 164.942 32.0766 166.575 34.3465V22.5909H170.123ZM166.575 40.4491C166.575 36.6544 163.433 33.7893 159.313 33.7893C155.233 33.7893 152.092 36.6544 152.092 40.4491C152.092 44.244 155.233 47.1101 159.313 47.1101C163.43 47.1101 166.575 44.244 166.575 40.4491Z" fill="#3E64B8"/>
<path d="M172.988 22.5904H176.537V49.752H172.988V22.5904Z" fill="#3E64B8"/>
<path d="M98.403 31.1506V49.7512H94.853V46.5508C93.2206 48.8273 90.6102 50.2361 87.1434 50.2361C81.4722 50.2361 76.8203 45.9566 76.8203 40.4491C76.8203 34.9435 81.4722 30.6631 87.1434 30.6631C90.6102 30.6631 93.2206 32.0764 94.853 34.3465V31.1506H98.403ZM94.853 40.4491C94.853 36.6544 91.7123 33.7891 87.5908 33.7891C83.5116 33.7891 80.3701 36.6544 80.3701 40.4491C80.3701 44.2439 83.5116 47.11 87.5908 47.11C91.7083 47.11 94.853 44.2439 94.853 40.4491" fill="#3E64B8"/>
<path d="M71.5656 46.1717C65.8418 48.0981 59.4898 45.4271 57.3785 40.2071C55.2663 34.9879 58.1938 29.195 63.9175 27.2685C67.6006 26.0293 71.7282 26.6661 74.7598 28.9407C75.3832 29.4097 75.9468 29.9412 76.4418 30.5243L79.5128 28.4763C74.5235 22.5276 65.1903 21.3945 58.6675 25.9447C52.1459 30.4949 50.9023 39.0058 55.8916 44.9546C60.8809 50.9034 70.2139 52.0364 76.7367 47.4862C76.7581 47.4705 76.7801 47.456 76.8024 47.4402L74.7589 44.4931C73.8031 45.2097 72.7242 45.7772 71.5656 46.1717" fill="#3E64B8"/>
<path d="M193.667 31.1508V41.7078C193.667 45.1228 191.49 47.2845 188.167 47.2845C184.842 47.2845 182.435 45.1228 182.435 41.7078V31.1508H178.844V41.3929C178.844 46.7583 182.512 50.2427 188.167 50.2427C193.057 50.2427 193.821 47.4207 193.821 47.3498V51.1492C193.821 54.9125 192.026 57.0371 188.281 57.0371C185.514 57.05 183.165 55.1898 182.79 52.6905L179.581 53.7149C180.527 57.402 184.135 60.0063 188.287 60C194.095 60 197.271 56.5138 197.271 51.1492V31.1508H193.667Z" fill="#3E64B8"/>
<path d="M28.9005 41.9871C27.5369 43.0908 25.8338 44.4637 22.7456 44.4637H20.899C18.6644 44.4637 16.6309 43.7239 15.1773 42.3814C13.756 41.0687 12.9731 39.273 12.9731 37.3237V35.0195C12.9731 33.0701 13.756 31.2744 15.1773 29.9626C16.6309 28.6201 18.6644 27.8805 20.899 27.8805H22.7456C25.8378 27.8805 27.5369 29.2521 28.9005 30.356C30.3171 31.4947 31.5381 32.4887 34.7961 32.4887C35.2931 32.4887 35.7892 32.4527 36.28 32.3808L36.2679 32.3541C36.0739 31.913 35.8448 31.4836 35.5839 31.0708L33.4061 27.6309C31.4079 24.4744 27.7146 22.5306 23.7193 22.5306H19.3634C15.3673 22.5306 11.674 24.4744 9.67582 27.6309L7.4978 31.0708C5.50073 34.2272 5.50073 38.1159 7.4978 41.2734L9.67582 44.7123C11.674 47.8687 15.3673 49.8125 19.3634 49.8125H23.7193C27.7146 49.8125 31.4079 47.8687 33.4061 44.7123L35.5839 41.2776C35.8448 40.8649 36.0739 40.4366 36.2679 39.9944L36.28 39.9706C35.7892 39.895 35.2931 39.8572 34.7961 39.8561C31.5381 39.8561 30.3171 40.8447 28.9005 41.9881" fill="#3E64B8"/>
<path d="M22.749 29.9679H20.9025C17.5012 29.9679 15.2656 32.1835 15.2656 35.0195V37.3234C15.2656 40.1602 17.5012 42.375 20.9025 42.375H22.749C27.705 42.375 27.3161 37.7666 34.7995 37.7666C35.5087 37.7656 36.2168 37.8248 36.9129 37.9435C37.1402 36.7716 37.1402 35.5721 36.9129 34.3994C36.2159 34.5173 35.5087 34.5771 34.7995 34.5761C27.313 34.5761 27.705 29.9679 22.749 29.9679" fill="#3E64B8"/>
<path d="M41.205 39.6281C39.9301 38.7767 38.4602 38.201 36.9066 37.943V37.9771C36.7724 38.6559 36.5633 39.3222 36.2824 39.9624C37.5662 40.144 38.7846 40.6018 39.8362 41.2975C39.8362 41.3067 39.8301 41.3178 39.826 41.3287C36.7036 50.5489 25.9744 55.7166 15.8635 52.8687C5.75257 50.0211 0.0863899 40.2361 3.20996 31.0148C6.33248 21.7937 17.0606 16.6262 27.1716 19.4747C33.2215 21.1781 37.9582 25.4983 39.826 31.0148C39.826 31.025 39.8321 31.037 39.8362 31.0462C38.7846 31.7419 37.5662 32.1988 36.2824 32.3792C36.5633 33.0212 36.7724 33.6875 36.9066 34.3674C36.9057 34.3777 36.9057 34.3888 36.9066 34.3997C38.4602 34.1418 39.9301 33.5659 41.205 32.7157C42.4303 31.8884 42.1928 30.9531 42.007 30.4002C38.512 20.0625 26.4908 14.2668 15.1554 17.4534C3.82006 20.6411 -2.53601 31.6054 0.959264 41.9432C4.45454 52.2802 16.4767 58.0759 27.8109 54.8892C34.5993 52.9801 39.9139 48.1331 42.007 41.9432C42.1928 41.3895 42.4303 40.4553 41.205 39.6281" fill="#3E64B8"/>
<path d="M36.2748 32.3795C35.7849 32.4541 35.2879 32.4919 34.7907 32.4938C31.534 32.4938 30.3117 31.5043 28.8973 30.3609C27.5317 29.2562 25.8324 27.8835 22.7413 27.8835H20.8936C18.6582 27.8835 16.6268 28.6244 15.172 29.9667C13.7506 31.2785 12.9688 33.0742 12.9688 35.0236V37.3286C12.9688 39.2782 13.7506 41.0728 15.172 42.3857C16.6268 43.728 18.6582 44.4678 20.8936 44.4678H22.7413C25.8324 44.4678 27.5317 43.0951 28.8973 41.9914C30.3117 40.8536 31.534 39.8594 34.7907 39.8594C35.2879 39.8594 35.7849 39.8955 36.2748 39.9672C36.5567 39.3268 36.7657 38.661 36.8991 37.9819C36.8991 37.97 36.8991 37.9587 36.8991 37.9468C36.2021 37.8299 35.494 37.7709 34.7848 37.7709C27.2983 37.7709 27.6903 42.3809 22.7343 42.3809H20.8876C17.4864 42.3809 15.2518 40.1643 15.2518 37.3286V35.019C15.2518 32.1842 17.4864 29.9677 20.8876 29.9677H22.7343C27.6903 29.9677 27.3012 34.5759 34.7848 34.5759C35.494 34.5769 36.2021 34.5177 36.8991 34.399V34.3675C36.7648 33.6869 36.5555 33.0208 36.2748 32.3795" fill="#65CCD5"/>
<path d="M36.2748 32.3795C35.7849 32.4541 35.2879 32.4919 34.7907 32.4938C31.534 32.4938 30.3117 31.5043 28.8973 30.3609C27.5317 29.2562 25.8324 27.8835 22.7413 27.8835H20.8936C18.6582 27.8835 16.6268 28.6244 15.172 29.9667C13.7506 31.2785 12.9688 33.0742 12.9688 35.0236V37.3286C12.9688 39.2782 13.7506 41.0728 15.172 42.3857C16.6268 43.728 18.6582 44.4678 20.8936 44.4678H22.7413C25.8324 44.4678 27.5317 43.0951 28.8973 41.9914C30.3117 40.8536 31.534 39.8594 34.7907 39.8594C35.2879 39.8594 35.7849 39.8955 36.2748 39.9672C36.5567 39.3268 36.7657 38.661 36.8991 37.9819C36.8991 37.97 36.8991 37.9587 36.8991 37.9468C36.2021 37.8299 35.494 37.7709 34.7848 37.7709C27.2983 37.7709 27.6903 42.3809 22.7343 42.3809H20.8876C17.4864 42.3809 15.2518 40.1643 15.2518 37.3286V35.019C15.2518 32.1842 17.4864 29.9677 20.8876 29.9677H22.7343C27.6903 29.9677 27.3012 34.5759 34.7848 34.5759C35.494 34.5769 36.2021 34.5177 36.8991 34.399V34.3675C36.7648 33.6869 36.5555 33.0208 36.2748 32.3795" fill="#65CCD5"/>
</g>
<defs>
<clipPath id="clip0_2:38">
<rect width="280" height="60" fill="white"/>
</clipPath>
</defs>
</svg>
