<svg width="45" height="45" viewBox="0 0 45 45" fill="none" xmlns="http://www.w3.org/2000/svg">
<path d="M24.9187 25.8562L24.375 26.4187V21.5625C24.375 21.0652 24.1775 20.5883 23.8258 20.2367C23.4742 19.885 22.9973 19.6875 22.5 19.6875C22.0027 19.6875 21.5258 19.885 21.1742 20.2367C20.8225 20.5883 20.625 21.0652 20.625 21.5625V26.4187L20.0813 25.8562C19.7282 25.5032 19.2493 25.3048 18.75 25.3048C18.2507 25.3048 17.7718 25.5032 17.4187 25.8562C17.0657 26.2093 16.8673 26.6882 16.8673 27.1875C16.8673 27.6868 17.0657 28.1657 17.4187 28.5187L21.1687 32.2687C21.3471 32.4394 21.5573 32.5733 21.7875 32.6625C22.0119 32.7617 22.2546 32.8129 22.5 32.8129C22.7454 32.8129 22.9881 32.7617 23.2125 32.6625C23.4427 32.5733 23.6529 32.4394 23.8313 32.2687L27.5813 28.5187C27.9343 28.1657 28.1327 27.6868 28.1327 27.1875C28.1327 26.6882 27.9343 26.2093 27.5813 25.8562C27.2282 25.5032 26.7493 25.3048 26.25 25.3048C25.7507 25.3048 25.2718 25.5032 24.9187 25.8562V25.8562ZM35.625 10.3125H23.85L23.25 8.4375C22.861 7.3373 22.1395 6.38531 21.1854 5.71342C20.2314 5.04153 19.0919 4.683 17.925 4.6875H9.375C7.88316 4.6875 6.45242 5.28013 5.39752 6.33502C4.34263 7.38991 3.75 8.82065 3.75 10.3125V34.6875C3.75 36.1793 4.34263 37.6101 5.39752 38.665C6.45242 39.7199 7.88316 40.3125 9.375 40.3125H35.625C37.1168 40.3125 38.5476 39.7199 39.6025 38.665C40.6574 37.6101 41.25 36.1793 41.25 34.6875V15.9375C41.25 14.4457 40.6574 13.0149 39.6025 11.96C38.5476 10.9051 37.1168 10.3125 35.625 10.3125ZM37.5 34.6875C37.5 35.1848 37.3025 35.6617 36.9508 36.0133C36.5992 36.365 36.1223 36.5625 35.625 36.5625H9.375C8.87772 36.5625 8.40081 36.365 8.04918 36.0133C7.69754 35.6617 7.5 35.1848 7.5 34.6875V10.3125C7.5 9.81522 7.69754 9.3383 8.04918 8.98667C8.40081 8.63504 8.87772 8.4375 9.375 8.4375H17.925C18.3181 8.43648 18.7015 8.55903 19.0212 8.78782C19.3408 9.01662 19.5805 9.34008 19.7063 9.7125L20.7188 12.7875C20.8445 13.1599 21.0842 13.4834 21.4038 13.7122C21.7235 13.941 22.1069 14.0635 22.5 14.0625H35.625C36.1223 14.0625 36.5992 14.26 36.9508 14.6117C37.3025 14.9633 37.5 15.4402 37.5 15.9375V34.6875Z" fill="#F14135"/>
</svg>
