<svg width="49" height="53" viewBox="0 0 49 53" fill="none" xmlns="http://www.w3.org/2000/svg">
<path d="M12.24 52.9293C18.9937 52.9293 24.475 48.9771 24.475 44.1076V35.286H12.24C5.4862 35.286 0.00488281 39.2381 0.00488281 44.1076C0.00488281 48.9771 5.4862 52.9293 12.24 52.9293Z" fill="#0ACF83"/>
<path d="M0.00488281 26.4651C0.00488281 21.5955 5.4862 17.6435 12.24 17.6435H24.475V35.2866H12.24C5.4862 35.2866 0.00488281 31.3346 0.00488281 26.4651Z" fill="#A259FF"/>
<path d="M0.00488281 8.82157C0.00488281 3.95206 5.4862 0 12.24 0H24.475V17.6431H12.24C5.4862 17.6431 0.00488281 13.6911 0.00488281 8.82157Z" fill="#F24E1E"/>
<path d="M24.4751 0H36.7101C43.4639 0 48.9452 3.95206 48.9452 8.82157C48.9452 13.6911 43.4639 17.6431 36.7101 17.6431H24.4751V0Z" fill="#FF7262"/>
<path d="M48.9452 26.4651C48.9452 31.3346 43.4639 35.2866 36.7101 35.2866C29.9564 35.2866 24.4751 31.3346 24.4751 26.4651C24.4751 21.5955 29.9564 17.6435 36.7101 17.6435C43.4639 17.6435 48.9452 21.5955 48.9452 26.4651Z" fill="#1ABCFE"/>
</svg>
