<svg width="98" height="105" viewBox="0 0 98 105" fill="none" xmlns="http://www.w3.org/2000/svg">
<g clip-path="url(#clip0_24:12)">
<path d="M24.4799 104.86C37.9874 104.86 48.95 97.0301 48.95 87.383V69.9062H24.4799C10.9724 69.9062 0.00976562 77.7358 0.00976562 87.383C0.00976562 97.0301 10.9724 104.86 24.4799 104.86Z" fill="#0ACF83"/>
<path d="M0.00976562 52.4308C0.00976562 42.7836 10.9724 34.9541 24.4799 34.9541H48.95V69.9074H24.4799C10.9724 69.9074 0.00976562 62.0779 0.00976562 52.4308Z" fill="#A259FF"/>
<path d="M0.00976562 17.4767C0.00976562 7.82955 10.9724 0 24.4799 0H48.95V34.9533H24.4799C10.9724 34.9533 0.00976562 27.1238 0.00976562 17.4767Z" fill="#F24E1E"/>
<path d="M48.9502 0H73.4203C86.9278 0 97.8905 7.82955 97.8905 17.4767C97.8905 27.1238 86.9278 34.9533 73.4203 34.9533H48.9502V0Z" fill="#FF7262"/>
<path d="M97.8905 52.4308C97.8905 62.0779 86.9278 69.9074 73.4203 69.9074C59.9128 69.9074 48.9502 62.0779 48.9502 52.4308C48.9502 42.7836 59.9128 34.9541 73.4203 34.9541C86.9278 34.9541 97.8905 42.7836 97.8905 52.4308Z" fill="#1ABCFE"/>
</g>
<defs>
<clipPath id="clip0_24:12">
<rect width="97.9" height="104.86" fill="white"/>
</clipPath>
</defs>
</svg>
