<svg width="43" height="44" viewBox="0 0 43 44" fill="none" xmlns="http://www.w3.org/2000/svg">
<path d="M29.475 28.7341C28.0841 29.9571 26.347 31.4784 23.1972 31.4784H21.3137C19.0344 31.4784 16.9604 30.6586 15.4777 29.171C14.028 27.7164 13.2295 25.7266 13.2295 23.5665V21.0132C13.2295 18.8531 14.028 16.8633 15.4777 15.4096C16.9604 13.922 19.0344 13.1024 21.3137 13.1024H23.1972C26.3511 13.1024 28.0841 14.6223 29.475 15.8456C30.9198 17.1073 32.1653 18.2088 35.4883 18.2088C35.9952 18.2088 36.5012 18.1689 37.0019 18.0892L36.9895 18.0597C36.7916 17.5708 36.5579 17.095 36.2919 16.6376L34.0706 12.8258C32.0324 9.32811 28.2654 7.17413 24.1903 7.17413H19.7475C15.6715 7.17413 11.9044 9.32811 9.86641 12.8258L7.6449 16.6376C5.60795 20.1353 5.60795 24.4444 7.6449 27.9432L9.86641 31.7539C11.9044 35.2516 15.6715 37.4055 19.7475 37.4055H24.1903C28.2654 37.4055 32.0324 35.2516 34.0706 31.7539L36.2919 27.9479C36.5579 27.4905 36.7916 27.0159 36.9895 26.526L37.0019 26.4996C36.5012 26.4158 35.9952 26.3739 35.4883 26.3728C32.1653 26.3728 30.9198 27.4682 29.475 28.7353" fill="#3E64B8"/>
<path d="M23.2031 15.4154H21.3197C17.8505 15.4154 15.5703 17.8705 15.5703 21.0131V23.5661C15.5703 26.7095 17.8505 29.1638 21.3197 29.1638H23.2031C28.258 29.1638 27.8614 24.0572 35.4943 24.0572C36.2176 24.0561 36.9398 24.1216 37.6498 24.2532C37.8817 22.9546 37.8817 21.6255 37.6498 20.326C36.9389 20.4566 36.2176 20.5229 35.4943 20.5217C27.8582 20.5217 28.258 15.4154 23.2031 15.4154" fill="#3E64B8"/>
<path d="M42.0278 26.12C40.7275 25.1765 39.2281 24.5386 37.6436 24.2527V24.2904C37.5066 25.0427 37.2934 25.781 37.0069 26.4904C38.3164 26.6917 39.559 27.199 40.6316 27.9698C40.6316 27.98 40.6254 27.9923 40.6213 28.0044C37.4366 38.2215 26.4931 43.9478 16.1803 40.7921C5.86744 37.6366 0.0881149 26.7937 3.27405 16.5754C6.45893 6.35745 17.4013 0.631356 27.7141 3.78775C33.8849 5.67535 38.7162 10.4625 40.6213 16.5754C40.6213 16.5868 40.6275 16.6 40.6316 16.6103C39.559 17.3812 38.3164 17.8875 37.0069 18.0874C37.2934 18.7989 37.5066 19.5372 37.6436 20.2905C37.6427 20.3019 37.6427 20.3142 37.6436 20.3263C39.2281 20.0406 40.7275 19.4024 42.0278 18.4603C43.2775 17.5435 43.0354 16.5071 42.8458 15.8945C39.281 4.43911 27.0197 -1.98319 15.458 1.54795C3.89634 5.08022 -2.58665 17.23 0.978419 28.6854C4.54349 40.1399 16.8057 46.5622 28.3662 43.031C35.2902 40.9154 40.7109 35.5445 42.8458 28.6854C43.0354 28.0718 43.2775 27.0366 42.0278 26.12" fill="#3E64B8"/>
<path d="M36.998 18.0878C36.4983 18.1704 35.9914 18.2123 35.4843 18.2144C32.1626 18.2144 30.9158 17.1179 29.4732 15.851C28.0803 14.6268 26.3471 13.1057 23.1943 13.1057H21.3097C19.0297 13.1057 16.9576 13.9267 15.4738 15.4141C14.0241 16.8677 13.2266 18.8575 13.2266 21.0177V23.5719C13.2266 25.7322 14.0241 27.7209 15.4738 29.1757C16.9576 30.6631 19.0297 31.4829 21.3097 31.4829H23.1943C26.3471 31.4829 28.0803 29.9619 29.4732 28.7388C30.9158 27.478 32.1626 26.3763 35.4843 26.3763C35.9914 26.3763 36.4983 26.4164 36.998 26.4958C37.2855 25.7862 37.4987 25.0483 37.6348 24.2959C37.6348 24.2827 37.6348 24.2701 37.6348 24.2569C36.9238 24.1274 36.2016 24.0621 35.4783 24.0621C27.8422 24.0621 28.2421 29.1705 23.1871 29.1705H21.3036C17.8344 29.1705 15.5552 26.7141 15.5552 23.5719V21.0127C15.5552 17.8713 17.8344 15.4152 21.3036 15.4152H23.1871C28.2421 15.4152 27.8452 20.5216 35.4783 20.5216C36.2016 20.5227 36.9238 20.4571 37.6348 20.3256V20.2907C37.4978 19.5365 37.2843 18.7984 36.998 18.0878" fill="#65CCD5"/>
<path d="M36.998 18.0878C36.4983 18.1704 35.9914 18.2123 35.4843 18.2144C32.1626 18.2144 30.9158 17.1179 29.4732 15.851C28.0803 14.6268 26.3471 13.1057 23.1943 13.1057H21.3097C19.0297 13.1057 16.9576 13.9267 15.4738 15.4141C14.0241 16.8677 13.2266 18.8575 13.2266 21.0177V23.5719C13.2266 25.7322 14.0241 27.7209 15.4738 29.1757C16.9576 30.6631 19.0297 31.4829 21.3097 31.4829H23.1943C26.3471 31.4829 28.0803 29.9619 29.4732 28.7388C30.9158 27.478 32.1626 26.3763 35.4843 26.3763C35.9914 26.3763 36.4983 26.4164 36.998 26.4958C37.2855 25.7862 37.4987 25.0483 37.6348 24.2959C37.6348 24.2827 37.6348 24.2701 37.6348 24.2569C36.9238 24.1274 36.2016 24.0621 35.4783 24.0621C27.8422 24.0621 28.2421 29.1705 23.1871 29.1705H21.3036C17.8344 29.1705 15.5552 26.7141 15.5552 23.5719V21.0127C15.5552 17.8713 26.0041 28.7388 29.4732 28.7388L23.1871 15.4152C28.2421 15.4152 27.8452 20.5216 35.4783 20.5216C36.2016 20.5227 36.9238 20.4571 37.6348 20.3256V20.2907C37.4978 19.5365 37.2843 18.7984 36.998 18.0878Z" fill="#65CCD5"/>
</svg>
