<svg width="100" height="105" viewBox="0 0 98 105" fill="none" xmlns="http://www.w3.org/2000/svg">
<path d="M10.8449 18.0155V24.3796C11.0651 23.8227 11.3155 23.3241 11.5909 22.8947C11.8358 22.5254 12.1081 22.248 12.3964 22.0744C12.7035 21.8895 13.0214 21.799 13.3404 21.8057C13.8005 21.799 14.2542 22.0371 14.6608 22.4987C14.9829 22.8842 15.2612 23.4177 15.4758 24.0607C15.6904 24.7037 15.8359 25.4405 15.9019 26.2181C15.9538 26.9434 15.9781 27.6765 15.9746 28.4102V36.6128C15.9987 37.3146 15.8998 38.0104 15.6973 38.5644C15.6064 38.7825 15.4942 38.9551 15.3687 39.0699C15.2432 39.1848 15.1075 39.2391 14.9711 39.2291C14.3109 39.2291 13.9808 38.3617 13.9808 36.6269V29.3719C14.0093 28.282 13.9118 27.1938 13.6969 26.204C13.583 25.8209 13.4211 25.5142 13.2296 25.3191C13.0381 25.124 12.8248 25.0484 12.6142 25.1009C12.2688 25.0926 11.9312 25.3205 11.6503 25.7514C11.3531 26.1931 11.1234 26.813 10.9902 27.5334C10.8578 28.646 10.8044 29.795 10.8317 30.9417V36.5986C10.856 37.2939 10.7597 37.9838 10.561 38.5361C10.4711 38.7575 10.3592 38.9333 10.2336 39.0507C10.108 39.1681 9.97181 39.2242 9.83484 39.215C9.17466 39.215 8.84457 38.3476 8.84457 36.6128V18.0155C8.81968 17.3202 8.91093 16.6285 9.10204 16.0639C9.19402 15.8467 9.30766 15.6767 9.43453 15.5665C9.5614 15.4563 9.69822 15.4088 9.83484 15.4275C9.97451 15.4111 10.1141 15.4623 10.2433 15.5774C10.3724 15.6925 10.4878 15.8684 10.5809 16.0922C10.7771 16.6465 10.8711 17.3363 10.8449 18.0297V18.0155ZM23.0385 36.8249C22.6094 37.5594 22.1365 38.1681 21.6323 38.6351C21.1497 39.0493 20.6338 39.256 20.1139 39.2433C19.6559 39.2545 19.2032 39.0315 18.7935 38.5927C18.4232 38.1941 18.1123 37.5818 17.8957 36.8249C17.687 36.0978 17.5772 35.2602 17.5788 34.4066C17.5675 33.3011 17.7541 32.2283 18.1004 31.4084C18.4803 30.5402 18.98 29.9554 19.5264 29.7396L20.4704 29.3153C20.9722 29.0985 21.4123 28.8957 21.7908 28.7072C22.1693 28.5186 22.5588 28.2971 22.9593 28.0425C22.9698 27.1642 22.8596 26.2987 22.6424 25.5534C22.4763 25.2287 22.2766 24.9929 22.0597 24.8651C21.8429 24.7372 21.615 24.7211 21.3947 24.818C21.0003 24.7671 20.6061 24.9224 20.246 25.2706C19.9737 25.6152 19.7466 26.1017 19.5858 26.6848C19.4009 27.2882 19.2689 27.6889 19.1897 27.8869C19.1214 28.0031 19.0431 28.0891 18.9593 28.1401C18.8754 28.191 18.7877 28.2059 18.7011 28.1839C18.487 28.1904 18.2795 28.0237 18.1202 27.7172C18.0409 27.5704 17.9778 27.3877 17.9355 27.1822C17.8933 26.9767 17.8729 26.7537 17.8759 26.5293C17.8853 25.7298 18.0176 24.9593 18.2522 24.3372C18.5604 23.5367 18.9643 22.9306 19.4207 22.5835C20.0542 22.0835 20.7265 21.8483 21.4013 21.8906C22.1057 21.8299 22.809 22.0554 23.4743 22.5552C23.945 22.9332 24.3286 23.689 24.5438 24.6625C24.773 25.8783 24.8788 27.1848 24.854 28.495C24.854 29.5039 24.854 30.3524 24.854 31.0407C24.854 31.7384 24.854 32.5162 24.854 33.3742C24.8531 34.1923 24.9064 35.0066 25.0125 35.7925C25.1043 36.3557 25.1663 36.9392 25.1973 37.532C25.1934 37.7659 25.1653 37.995 25.1151 38.2029C25.0648 38.4108 24.9937 38.5922 24.9069 38.7341C24.7261 39.0845 24.4904 39.2764 24.2467 39.2715C24.0138 39.2437 23.7956 39.0201 23.6393 38.6493C23.4022 38.0925 23.1982 37.4749 23.0319 36.8108L23.0385 36.8249ZM22.9065 30.6305C22.4876 30.9355 22.0597 31.1812 21.6257 31.3659C21.0668 31.6205 20.6795 31.8091 20.4638 31.9316C20.2372 32.0668 20.0275 32.3083 19.8498 32.6388C19.7557 32.814 19.6808 33.0316 19.6306 33.2762C19.5804 33.5207 19.5561 33.786 19.5594 34.053C19.5578 34.3654 19.5877 34.6749 19.6469 34.9604C19.7062 35.2459 19.7934 35.5007 19.9027 35.7077C20.1514 36.1775 20.4759 36.421 20.8071 36.3865C21.1879 36.3961 21.5641 36.2068 21.903 35.8349C22.2084 35.5275 22.4653 35.036 22.6424 34.4207C22.8563 33.4207 22.9493 32.3217 22.9131 31.2245L22.9065 30.6305ZM28.6963 24.1675V24.6907C29.0006 23.7853 29.3953 23.0364 29.8516 22.4987C30.298 22.0211 30.792 21.7833 31.2908 21.8057C31.7834 21.7872 32.2699 22.0404 32.7036 22.5411C33.097 23.0226 33.4107 23.754 33.6015 24.6342C33.7345 25.1619 33.8217 25.7369 33.859 26.3313C33.9027 27.1007 33.9226 27.8755 33.9184 28.6506V36.6269C33.9425 37.3287 33.8436 38.0246 33.6411 38.5786C33.5485 38.7883 33.437 38.9553 33.3133 39.0695C33.1895 39.1837 33.0562 39.2426 32.9215 39.2426C32.7868 39.2426 32.6535 39.1837 32.5297 39.0695C32.406 38.9553 32.2944 38.7883 32.2019 38.5786C32.0009 38.0283 31.9022 37.3381 31.9246 36.6411V29.4709C31.9637 28.356 31.88 27.237 31.6803 26.204C31.5669 25.8123 31.4033 25.4987 31.209 25.3006C31.0147 25.1026 30.7979 25.0283 30.5844 25.0867C30.2436 25.0997 29.9133 25.3422 29.6404 25.7797C29.339 26.2364 29.1089 26.8771 28.9802 27.6182C28.8571 28.7915 28.8082 29.995 28.835 31.1962V36.5703C28.8572 37.274 28.756 37.97 28.5511 38.522C28.4587 38.7352 28.3461 38.9036 28.2209 39.0158C28.0956 39.1281 27.9606 39.1815 27.8249 39.1725C27.6899 39.1806 27.5558 39.1238 27.4324 39.0063C27.3091 38.8888 27.1995 38.7137 27.1119 38.4937C26.9109 37.9434 26.8121 37.2532 26.8346 36.5562V24.2523C26.8122 23.5992 26.9014 22.9508 27.0855 22.428C27.1687 22.2311 27.2708 22.075 27.3847 21.9701C27.4986 21.8651 27.6217 21.8139 27.7456 21.8198C27.9125 21.8158 28.0768 21.9087 28.221 22.0885C28.3696 22.28 28.4889 22.5601 28.5643 22.8947C28.655 23.2954 28.7002 23.7363 28.6963 24.1816V24.1675ZM41.4247 36.7825V36.3582C41.1884 36.955 40.9228 37.4955 40.6324 37.9704C40.3742 38.3824 40.0866 38.7024 39.7808 38.918C39.4565 39.1402 39.1178 39.25 38.7773 39.2433C38.3196 39.2487 37.8676 39.026 37.457 38.5927C37.0444 38.1467 36.6835 37.5089 36.4007 36.7259C36.0998 35.88 35.8759 34.9206 35.7405 33.8974C35.5824 32.7498 35.5045 31.5583 35.5094 30.3618C35.4454 28.1029 35.7721 25.8725 36.4271 24.0968C36.7248 23.36 37.0957 22.7756 37.5128 22.3865C37.9298 21.9973 38.3822 21.8134 38.8367 21.8481C39.3395 21.8149 39.8391 22.0328 40.2958 22.4845C40.733 22.9795 41.1245 23.6408 41.4511 24.4362V18.1004C41.4274 17.3961 41.5133 16.695 41.6953 16.1063C41.7783 15.8819 41.8851 15.7032 42.0068 15.5851C42.1285 15.467 42.2617 15.413 42.3951 15.4275C42.5262 15.4106 42.6573 15.4579 42.7785 15.5657C42.8998 15.6735 43.008 15.8391 43.0949 16.0498C43.272 16.5795 43.3583 17.2239 43.3392 17.8741V36.7825C43.3627 37.4448 43.2683 38.1015 43.0751 38.621C42.9911 38.8157 42.8889 38.9704 42.7752 39.0751C42.6614 39.1799 42.5387 39.2323 42.4149 39.2291C42.29 39.2306 42.1664 39.1745 42.0525 39.0647C41.9386 38.9549 41.8371 38.7939 41.7548 38.5927C41.5403 38.1025 41.4221 37.4543 41.4247 36.7825V36.7825ZM37.4636 30.4891C37.4497 31.5057 37.5351 32.5173 37.7144 33.459C37.848 34.1944 38.0771 34.8324 38.3746 35.2975C38.6576 35.7047 38.991 35.9214 39.3319 35.9198C39.6732 35.9251 40.0079 35.7188 40.2958 35.3258C40.6051 34.882 40.8462 34.2522 40.9889 33.5156C41.1987 32.5595 41.3091 31.5172 41.3124 30.4608C41.3256 29.4522 41.2378 28.4492 41.055 27.5192C40.9054 26.7641 40.6608 26.113 40.3486 25.6383C40.0641 25.2123 39.7252 24.9851 39.3781 24.9877C39.0253 24.9765 38.6803 25.2096 38.3944 25.6524C38.094 26.1412 37.8649 26.8035 37.7342 27.5616C37.5656 28.4848 37.4826 29.4696 37.49 30.4608L37.4636 30.4891ZM45.3198 36.6269V18.0155C45.2938 17.3156 45.3903 16.6199 45.5904 16.0639C45.6794 15.8446 45.7903 15.671 45.9149 15.5559C46.0394 15.4409 46.1745 15.3873 46.31 15.3992C46.4469 15.3873 46.5833 15.4393 46.7099 15.5516C46.8364 15.6639 46.95 15.8339 47.0428 16.0498C47.2454 16.6038 47.3442 17.2996 47.3201 18.0014V36.6128C47.3424 37.3164 47.2411 38.0124 47.0362 38.5644C46.9439 38.7777 46.8313 38.9461 46.706 39.0583C46.5808 39.1705 46.4457 39.2239 46.31 39.215C46.1751 39.223 46.041 39.1662 45.9176 39.0487C45.7942 38.9313 45.6847 38.7561 45.597 38.5361C45.3976 37.9895 45.299 37.305 45.3198 36.6128V36.6269ZM54.9783 31.5639H51.0634C51.0597 32.4568 51.1547 33.3388 51.3406 34.1379C51.4916 34.821 51.7314 35.3965 52.0311 35.7953C52.3309 36.1941 52.6779 36.3994 53.0307 36.3865C53.2537 36.3911 53.4759 36.3292 53.6909 36.2026C53.8944 36.0763 54.088 35.8856 54.2653 35.6369C54.4461 35.391 54.6182 35.1169 54.7802 34.8167C54.9386 34.5338 55.1411 34.1379 55.3876 33.6287C55.5143 33.4235 55.6714 33.3231 55.8299 33.3459C56.0106 33.3322 56.1871 33.4633 56.325 33.7136C56.39 33.8426 56.4409 34.0007 56.474 34.1768C56.5071 34.3528 56.5216 34.5424 56.5165 34.7318C56.5061 35.2351 56.4332 35.7234 56.3052 36.1461C56.1316 36.727 55.9075 37.2311 55.645 37.631C55.3198 38.153 54.9561 38.5545 54.5689 38.819C54.0869 39.1485 53.5828 39.3061 53.0769 39.2857C52.5306 39.3438 51.9846 39.159 51.4733 38.7427C50.962 38.3265 50.4965 37.688 50.1061 36.8673C49.734 36.0094 49.4459 35.0005 49.2588 33.9002C49.0718 32.7999 48.9895 31.6304 49.0168 30.4608C49.0118 29.2636 49.1011 28.0731 49.2809 26.9394C49.4417 25.8898 49.705 24.9255 50.0533 24.1109C50.4008 23.322 50.8274 22.7127 51.301 22.329C51.8259 21.9022 52.3836 21.6911 52.9449 21.7067C53.6374 21.6768 54.321 22.0429 54.9254 22.7674C55.4552 23.4124 55.8898 24.363 56.1798 25.511C56.4667 26.5884 56.6191 27.8062 56.6221 29.0466C56.6221 30.1214 56.4791 30.8191 56.193 31.1397C55.8088 31.48 55.393 31.6252 54.9783 31.5639V31.5639ZM51.0634 29.1315H54.6944C54.6928 27.9288 54.4969 26.7644 54.1398 25.8363C53.9745 25.4824 53.7761 25.2075 53.5576 25.0296C53.3391 24.8517 53.1056 24.7747 52.8723 24.8039C52.6427 24.7887 52.4142 24.8793 52.2024 25.0696C51.9905 25.2599 51.8002 25.5455 51.6443 25.907C51.2944 26.8207 51.0907 27.9511 51.0634 29.1315V29.1315ZM59.956 17.8741V24.422C60.289 23.6547 60.6768 23.0055 61.1048 22.4987C61.5562 22.0258 62.0549 21.7976 62.5572 21.834C63.1739 21.8061 63.7813 22.1596 64.3067 22.8522C64.8235 23.5634 65.2302 24.5871 65.4752 25.7939C65.7661 27.2294 65.9081 28.7831 65.8911 30.3477C65.8974 31.5583 65.8195 32.7642 65.66 33.9257C65.5247 34.9488 65.3007 35.9083 64.9999 36.7542C64.7136 37.534 64.3478 38.163 63.9304 38.5927C63.4997 39.0325 63.0277 39.2551 62.5506 39.2433C62.253 39.2295 61.9576 39.1296 61.6725 38.9463C61.4397 38.8075 61.2174 38.5979 61.0123 38.324C60.8377 38.0952 60.6741 37.8299 60.5238 37.532C60.3918 37.2492 60.2157 36.8391 59.9957 36.3016V36.7259C60.0176 37.3858 59.9207 38.0386 59.725 38.5503C59.6408 38.7455 59.5387 38.9014 59.4251 39.0085C59.3115 39.1155 59.1889 39.1714 59.0648 39.1725C58.9403 39.1777 58.8167 39.1246 58.7027 39.0172C58.5887 38.9097 58.487 38.7504 58.4046 38.5503C58.2211 38.0268 58.132 37.3789 58.1537 36.7259V18.058C58.1311 17.3628 58.217 16.6712 58.398 16.0922C58.4769 15.8804 58.5775 15.7103 58.692 15.5951C58.8064 15.4798 58.9317 15.4225 59.0582 15.4275C59.1918 15.4101 59.3255 15.4584 59.4491 15.5687C59.5727 15.679 59.6829 15.8484 59.7712 16.0639C59.9274 16.5992 59.9927 17.2336 59.956 17.86V17.8741ZM60.0485 30.6023C60.0056 32.011 60.2 33.4061 60.5964 34.5338C60.7689 34.9884 60.9877 35.3523 61.236 35.5974C61.4844 35.8426 61.7557 35.9626 62.029 35.9481C62.2853 35.9492 62.5382 35.8219 62.7675 35.5763C62.9967 35.3308 63.196 34.9738 63.3494 34.5338C63.745 33.353 63.9322 31.9096 63.8775 30.4608C63.884 29.4966 63.808 28.5379 63.6531 27.6324C63.5213 26.8794 63.2923 26.2222 62.9929 25.7373C62.7106 25.2899 62.3669 25.0561 62.0158 25.0726C61.6528 25.061 61.2973 25.2935 60.9991 25.7373C60.6935 26.2221 60.4559 26.8777 60.3125 27.6324C60.1328 28.5791 60.0452 29.5946 60.0551 30.6164L60.0485 30.6023ZM72.5524 36.8249C72.1232 37.5594 71.6503 38.1681 71.1462 38.6351C70.6636 39.0493 70.1476 39.256 69.6278 39.2433C69.1697 39.2545 68.7171 39.0315 68.3074 38.5927C67.9371 38.1941 67.6261 37.5818 67.4095 36.8249C67.2008 36.0978 67.0911 35.2602 67.0926 34.4066C67.0813 33.3011 67.2679 32.2283 67.6142 31.4084C67.9941 30.5402 68.4939 29.9554 69.0402 29.7396L69.9843 29.3153C70.486 29.0985 70.9261 28.8957 71.3046 28.7072C71.6831 28.5186 72.0726 28.2971 72.4731 28.0425C72.4837 27.1642 72.3735 26.2987 72.1563 25.5534C71.9923 25.2351 71.7959 25.003 71.5828 24.8754C71.3697 24.7477 71.1456 24.7281 70.9283 24.818C70.5339 24.7671 70.1397 24.9224 69.7796 25.2706C69.5074 25.6152 69.2803 26.1017 69.1194 26.6848C68.9346 27.2882 68.8025 27.6889 68.7233 27.8869C68.655 28.0031 68.5767 28.0891 68.4929 28.1401C68.409 28.191 68.3213 28.2059 68.2348 28.1839C68.0184 28.1677 67.813 27.9755 67.6604 27.6465C67.5811 27.4997 67.518 27.317 67.4758 27.1115C67.4335 26.906 67.4132 26.683 67.4161 26.4585C67.4256 25.6591 67.5578 24.8886 67.7924 24.2665C68.1006 23.466 68.5045 22.8598 68.961 22.5128C69.5944 22.0128 70.2667 21.7776 70.9415 21.8198C71.6459 21.7592 72.3493 21.9847 73.0145 22.4845C73.4853 22.8625 73.8689 23.6183 74.084 24.5917C74.3133 25.8076 74.419 27.1141 74.3943 28.4243C74.3943 29.4332 74.3943 30.2817 74.3943 30.97C74.3943 31.6677 74.3943 32.4455 74.3943 33.3035C74.3974 34.1575 74.4597 35.0059 74.5791 35.8208C74.669 36.3658 74.731 36.9301 74.764 37.5037C74.76 37.7376 74.7319 37.9668 74.6817 38.1746C74.6315 38.3825 74.5604 38.5639 74.4735 38.7058C74.2928 39.0562 74.0571 39.2481 73.8133 39.2433C73.5805 39.2154 73.3622 38.9918 73.206 38.621C72.9512 38.0795 72.7294 37.4713 72.5458 36.8108L72.5524 36.8249ZM72.4203 30.6305C72.0014 30.9355 71.5736 31.1812 71.1396 31.3659C70.5806 31.6205 70.1933 31.8091 69.9776 31.9316C69.751 32.0668 69.5413 32.3083 69.3637 32.6388C69.2695 32.814 69.1947 33.0316 69.1445 33.2762C69.0942 33.5207 69.0699 33.786 69.0732 34.053C69.0717 34.3654 69.1015 34.6749 69.1608 34.9604C69.22 35.2459 69.3072 35.5007 69.4165 35.7077C69.6653 36.1775 69.9897 36.421 70.3209 36.3865C70.7017 36.3961 71.0779 36.2068 71.4169 35.8349C71.7222 35.5275 71.9792 35.036 72.1563 34.4207C72.3701 33.4207 72.4632 32.3217 72.4269 31.2245L72.4203 30.6305ZM78.395 33.0347V36.6128C78.4173 37.3164 78.316 38.0124 78.1111 38.5644C78.0188 38.7777 77.9062 38.9461 77.7809 39.0583C77.6557 39.1705 77.5206 39.2239 77.3849 39.215C77.2506 39.2228 77.1171 39.1673 76.9939 39.0524C76.8707 38.9375 76.7608 38.7661 76.6719 38.5503C76.4694 37.9963 76.3705 37.3004 76.3946 36.5986V24.6766C76.3946 22.791 76.7203 21.8481 77.3717 21.8481C77.5087 21.8215 77.6466 21.8698 77.7724 21.9885C77.8983 22.1073 78.008 22.2925 78.0913 22.527C78.2592 23.1288 78.3439 23.8202 78.3356 24.521C78.5273 23.771 78.7773 23.0966 79.075 22.527C79.3628 22.0484 79.7213 21.8075 80.0851 21.8481C80.5122 21.8539 80.9319 22.0872 81.3064 22.527C81.4759 22.6714 81.6221 22.9179 81.7276 23.2366C81.833 23.5554 81.8931 23.9327 81.9006 24.323C81.9047 24.5657 81.8844 24.8075 81.8411 25.0319C81.7978 25.2564 81.7325 25.4584 81.6497 25.6241C81.5055 25.9418 81.3086 26.1247 81.1018 26.1333C80.9212 26.0756 80.7441 25.976 80.5736 25.8363C80.3336 25.6555 80.0819 25.5554 79.8276 25.5393C79.5678 25.515 79.3126 25.6906 79.108 26.0343C78.9055 26.4122 78.7549 26.9011 78.6723 27.4485C78.5602 28.2015 78.4893 28.9798 78.461 29.7679C78.417 30.6541 78.395 31.7384 78.395 33.0206V33.0347ZM89.057 33.6004C89.0804 34.6864 88.9368 35.7589 88.6482 36.6531C88.3596 37.5473 87.9419 38.2138 87.4593 38.5503C86.8451 39.0158 86.1962 39.2363 85.5448 39.2008C84.9126 39.2354 84.2838 38.9949 83.6963 38.4937C83.2513 38.1304 82.8595 37.5203 82.5608 36.7259C82.3355 36.1219 82.2081 35.3773 82.1977 34.6046C82.1963 34.3811 82.2161 34.1595 82.2558 33.9529C82.2955 33.7463 82.3543 33.559 82.4287 33.4025C82.5068 33.2377 82.5998 33.1088 82.702 33.0237C82.8041 32.9386 82.9133 32.899 83.0229 32.9075C83.1093 32.8912 83.1963 32.9116 83.279 32.9674C83.3617 33.0232 83.4384 33.1134 83.5048 33.2327C83.6353 33.5047 83.7446 33.8198 83.8283 34.1661C84.0037 34.8607 84.258 35.4492 84.5677 35.8774C84.9258 36.2913 85.3299 36.4869 85.7363 36.4431C86.0842 36.4715 86.4277 36.269 86.7199 35.8632C86.8302 35.7306 86.9231 35.5405 86.99 35.3106C87.0569 35.0808 87.0957 34.8185 87.1028 34.548C87.1137 34.2194 87.0818 33.8908 87.0107 33.5987C86.9396 33.3066 86.8321 33.0624 86.7001 32.8933C86.2841 32.431 85.8396 32.0976 85.3798 31.9034C84.8048 31.6154 84.2418 31.2276 83.6963 30.7437C83.2972 30.3919 82.9422 29.8446 82.6598 29.1456C82.3965 28.4629 82.258 27.5983 82.2703 26.7131C82.2699 25.8432 82.3943 24.994 82.6268 24.2806C82.8922 23.4726 83.2582 22.8405 83.6831 22.4562C84.2173 21.9737 84.7936 21.7422 85.3732 21.7774C85.8423 21.764 86.3104 21.8781 86.7661 22.1168C87.133 22.3055 87.483 22.6208 87.8026 23.0502C88.0625 23.375 88.2875 23.8135 88.4628 24.3372C88.6004 24.7507 88.6763 25.2437 88.6807 25.7514C88.6836 25.9753 88.6646 26.198 88.6248 26.4051C88.585 26.6122 88.5253 26.799 88.4496 26.9535C88.267 27.2899 88.0296 27.4577 87.7894 27.4202C87.6 27.4283 87.4154 27.2931 87.2679 27.0384C87.0848 26.6995 86.9188 26.3202 86.7727 25.907C86.6271 25.5 86.4454 25.1588 86.238 24.9029C85.9786 24.6228 85.6897 24.4912 85.3996 24.521C85.082 24.4945 84.7678 24.6665 84.4951 25.016C84.3894 25.1332 84.3005 25.3095 84.2378 25.526C84.175 25.7426 84.1408 25.9915 84.1386 26.2464C84.1375 26.4624 84.1609 26.6757 84.2069 26.8679C84.253 27.0601 84.3201 27.2254 84.4027 27.3495C84.6185 27.6756 84.86 27.9151 85.1157 28.0566C85.415 28.2452 85.8243 28.4809 86.3436 28.7637C86.87 29.016 87.3799 29.4054 87.862 29.9234C88.213 30.3006 88.5182 30.8478 88.7533 31.5215C88.9555 32.1327 89.0618 32.8656 89.057 33.6146V33.6004ZM26.9666 73.3123C27.4607 72.4419 27.8217 71.2745 28.0031 69.9605C28.1767 68.9903 28.1653 67.9127 27.9714 66.9603C27.7775 66.0079 27.4167 65.2569 26.9666 64.8693C23.9298 61.5741 21.969 67.4432 21.6852 68.8291C21.4013 70.2151 20.8929 72.3647 21.223 77.3145C21.5531 82.2644 22.6556 86.8324 26.1414 88.6285C29.4764 90.2874 32.977 89.4126 36.0442 86.1535C39.1206 83.0139 44.8906 77.4984 46.343 76.961C47.2961 76.4604 48.2732 76.1994 49.2545 76.1832V68.6453C48.4932 65.7138 47.3498 63.3208 45.964 61.7586C44.5782 60.1965 43.0101 59.5328 41.4511 59.8487C35.8857 60.7821 33.6741 66.9199 32.3207 69.5504C30.9673 72.1809 28.452 78.3752 26.7752 77.2863C25.0983 76.1973 24.6164 71.7425 25.2105 70.3565C25.8047 68.9705 26.2668 69.2251 26.6431 70.3565C26.8698 71.2647 26.9835 72.2826 26.9732 73.3123H26.9666Z" fill="black"/>
<path d="M71.3442 73.3123C70.8502 72.4419 70.4892 71.2745 70.3077 69.9605C70.1342 68.9903 70.1455 67.9127 70.3394 66.9603C70.5333 66.0079 70.8942 65.2569 71.3442 64.8693C74.3811 61.5741 76.3418 67.4432 76.6257 68.8291C76.9096 70.2151 77.4179 72.3647 77.0878 77.3145C76.7578 82.2644 75.6552 86.8324 72.1695 88.6284C68.8344 90.2874 65.3339 89.4126 62.2667 86.1535C59.1902 83.0139 53.4202 77.4984 51.9678 76.961C51.0147 76.4604 50.0377 76.1994 49.0564 76.1832V68.6453C49.8177 65.7138 50.961 63.3208 52.3468 61.7586C53.7326 60.1965 55.3008 59.5328 56.8598 59.8487C62.4251 60.7821 64.6368 66.9199 65.9901 69.5504C67.3435 72.1809 69.8588 78.3752 71.5357 77.2863C73.2126 76.1973 73.6945 71.7424 73.1003 70.3565C72.5062 68.9705 72.044 69.2251 71.6677 70.3565C71.441 71.2647 71.3274 72.2826 71.3376 73.3123H71.3442Z" fill="black"/>
</svg>
