<svg width="49" height="53" viewBox="0 0 49 53" fill="none" xmlns="http://www.w3.org/2000/svg">
<path d="M5.804 9.09354V12.3059C5.9119 12.0248 6.03459 11.7731 6.16954 11.5564C6.28954 11.37 6.42297 11.2299 6.56424 11.1423C6.71472 11.049 6.87049 11.0033 7.0268 11.0067C7.25224 11.0033 7.47456 11.1235 7.67379 11.3565C7.83162 11.5511 7.96799 11.8204 8.07314 12.1449C8.1783 12.4695 8.24959 12.8414 8.28193 13.2339C8.30736 13.6 8.31927 13.97 8.31755 14.3404V18.4808C8.32936 18.835 8.2809 19.1862 8.18168 19.4658C8.13714 19.5759 8.08216 19.6631 8.02066 19.721C7.95917 19.779 7.89267 19.8064 7.82584 19.8014C7.50234 19.8014 7.34059 19.3635 7.34059 18.4879V14.8258C7.35456 14.2757 7.30678 13.7264 7.20148 13.2268C7.14567 13.0334 7.06634 12.8786 6.9725 12.7801C6.87867 12.6816 6.77415 12.6435 6.67096 12.67C6.50171 12.6658 6.33629 12.7808 6.19865 12.9983C6.05302 13.2213 5.94047 13.5342 5.8752 13.8978C5.81032 14.4594 5.78416 15.0394 5.79753 15.6182V18.4736C5.80944 18.8245 5.76225 19.1728 5.66489 19.4516C5.62084 19.5633 5.56601 19.6521 5.50446 19.7113C5.44292 19.7706 5.37619 19.7989 5.30907 19.7942C4.98558 19.7942 4.82384 19.3564 4.82384 18.4808V9.09354C4.81164 8.74258 4.85636 8.39344 4.95 8.10845C4.99507 7.99882 5.05075 7.91301 5.11292 7.85738C5.17509 7.80176 5.24213 7.77778 5.30907 7.78722C5.37751 7.77894 5.44591 7.80479 5.50922 7.86288C5.57248 7.92098 5.62902 8.00977 5.67464 8.12273C5.77078 8.40252 5.81684 8.75071 5.804 9.10071V9.09354ZM11.7789 18.5878C11.5686 18.9586 11.3369 19.2658 11.0898 19.5015C10.8534 19.7106 10.6006 19.8149 10.3458 19.8085C10.1214 19.8142 9.89957 19.7016 9.69882 19.4801C9.51737 19.2789 9.36503 18.9699 9.25889 18.5878C9.15663 18.2208 9.10283 17.798 9.10361 17.3671C9.09807 16.8091 9.18951 16.2676 9.3592 15.8538C9.54535 15.4155 9.7902 15.1203 10.0579 15.0114L10.5205 14.7973C10.7664 14.6878 10.982 14.5855 11.1675 14.4903C11.353 14.3951 11.5438 14.2833 11.7401 14.1548C11.7452 13.7115 11.6912 13.2746 11.5848 12.8984C11.5034 12.7345 11.4055 12.6155 11.2993 12.551C11.193 12.4864 11.0813 12.4783 10.9734 12.5272C10.7801 12.5015 10.587 12.5799 10.4105 12.7556C10.2771 12.9296 10.1658 13.1751 10.087 13.4695C9.99644 13.774 9.93176 13.9763 9.89295 14.0762C9.85949 14.1349 9.82112 14.1783 9.78006 14.2041C9.73895 14.2297 9.69597 14.2373 9.65354 14.2262C9.54863 14.2294 9.44695 14.1453 9.3689 13.9906C9.33004 13.9165 9.29912 13.8243 9.27839 13.7205C9.25772 13.6168 9.24772 13.5043 9.24919 13.391C9.2538 12.9874 9.31862 12.5985 9.43358 12.2845C9.5846 11.8804 9.78251 11.5745 10.0061 11.3993C10.3166 11.1469 10.646 11.0282 10.9766 11.0495C11.3218 11.0189 11.6664 11.1327 11.9924 11.385C12.223 11.5758 12.411 11.9573 12.5165 12.4487C12.6288 13.0624 12.6806 13.7219 12.6685 14.3832C12.6685 14.8925 12.6685 15.3207 12.6685 15.6682C12.6685 16.0203 12.6685 16.4129 12.6685 16.846C12.668 17.259 12.6941 17.67 12.7461 18.0667C12.7911 18.351 12.8215 18.6455 12.8367 18.9447C12.8348 19.0628 12.821 19.1784 12.7964 19.2834C12.7718 19.3883 12.7369 19.4799 12.6944 19.5515C12.6058 19.7284 12.4903 19.8252 12.3709 19.8228C12.2568 19.8087 12.1498 19.6959 12.0733 19.5087C11.9571 19.2276 11.8571 18.9159 11.7756 18.5807L11.7789 18.5878ZM11.7142 15.4611C11.5089 15.6151 11.2993 15.7391 11.0866 15.8323C10.8127 15.9608 10.623 16.056 10.5173 16.1179C10.4062 16.1861 10.3035 16.308 10.2164 16.4748C10.1703 16.5633 10.1336 16.6731 10.109 16.7966C10.0844 16.92 10.0725 17.0539 10.0741 17.1887C10.0733 17.3464 10.088 17.5026 10.117 17.6467C10.146 17.7908 10.1888 17.9194 10.2423 18.0239C10.3642 18.261 10.5232 18.3839 10.6855 18.3665C10.8721 18.3714 11.0564 18.2758 11.2225 18.0881C11.3721 17.9329 11.498 17.6848 11.5848 17.3743C11.6896 16.8695 11.7352 16.3148 11.7174 15.7609L11.7142 15.4611ZM14.5512 12.1988V12.4629C14.7003 12.0059 14.8937 11.6279 15.1173 11.3565C15.336 11.1154 15.5781 10.9954 15.8225 11.0067C16.0639 10.9974 16.3023 11.1252 16.5148 11.3779C16.7075 11.6209 16.8612 11.9901 16.9547 12.4344C17.0199 12.7008 17.0626 12.991 17.0809 13.291C17.1023 13.6794 17.1121 14.0705 17.11 14.4617V18.4879C17.1218 18.8421 17.0734 19.1934 16.9741 19.473C16.9288 19.5789 16.8741 19.6632 16.8135 19.7208C16.7529 19.7784 16.6875 19.8082 16.6215 19.8082C16.5555 19.8082 16.4902 19.7784 16.4296 19.7208C16.3689 19.6632 16.3143 19.5789 16.2689 19.473C16.1704 19.1952 16.1221 18.8469 16.1331 18.495V14.8758C16.1522 14.313 16.1112 13.7482 16.0133 13.2268C15.9578 13.0291 15.8776 12.8708 15.7824 12.7708C15.6872 12.6708 15.581 12.6333 15.4764 12.6628C15.3094 12.6694 15.1475 12.7918 15.0138 13.0126C14.8661 13.2431 14.7534 13.5665 14.6903 13.9406C14.63 14.5329 14.606 15.1403 14.6191 15.7467V18.4593C14.63 18.8145 14.5804 19.1658 14.48 19.4444C14.4348 19.5521 14.3796 19.6371 14.3182 19.6937C14.2568 19.7504 14.1907 19.7773 14.1242 19.7728C14.0581 19.7769 13.9923 19.7482 13.9319 19.6889C13.8715 19.6296 13.8178 19.5412 13.7748 19.4302C13.6763 19.1524 13.6279 18.804 13.639 18.4522V12.2416C13.628 11.912 13.6717 11.5847 13.7619 11.3208C13.8027 11.2214 13.8527 11.1426 13.9085 11.0897C13.9643 11.0367 14.0246 11.0108 14.0853 11.0138C14.1671 11.0118 14.2476 11.0587 14.3183 11.1494C14.3911 11.2461 14.4496 11.3875 14.4865 11.5564C14.531 11.7586 14.5531 11.9812 14.5512 12.206V12.1988ZM20.7881 18.5664V18.3522C20.6723 18.6535 20.5422 18.9263 20.3999 19.166C20.2734 19.374 20.1324 19.5355 19.9826 19.6443C19.8237 19.7565 19.6577 19.8119 19.4909 19.8085C19.2666 19.8113 19.0451 19.6988 18.8439 19.4801C18.6418 19.255 18.4649 18.9331 18.3263 18.5378C18.1789 18.1109 18.0692 17.6266 18.0028 17.1101C17.9254 16.5309 17.8872 15.9294 17.8896 15.3255C17.8582 14.1853 18.0183 13.0595 18.3393 12.1632C18.4852 11.7912 18.6669 11.4963 18.8713 11.2999C19.0756 11.1034 19.2973 11.0106 19.52 11.0281C19.7664 11.0113 20.0112 11.1213 20.2349 11.3493C20.4492 11.5992 20.641 11.933 20.801 12.3345V9.1364C20.7894 8.78089 20.8315 8.42701 20.9207 8.12985C20.9614 8.01658 21.0137 7.92638 21.0733 7.86677C21.133 7.80716 21.1982 7.7799 21.2636 7.78722C21.3278 7.77869 21.3921 7.80256 21.4515 7.85698C21.5109 7.91139 21.5639 7.99498 21.6065 8.10133C21.6933 8.36871 21.7356 8.69397 21.7262 9.02217V18.5664C21.7377 18.9007 21.6915 19.2322 21.5968 19.4944C21.5556 19.5927 21.5056 19.6708 21.4498 19.7236C21.3941 19.7765 21.334 19.803 21.2733 19.8014C21.2121 19.8021 21.1515 19.7738 21.0957 19.7184C21.0399 19.663 20.9902 19.5817 20.9499 19.4801C20.8447 19.2327 20.7868 18.9055 20.7881 18.5664ZM18.8472 15.3897C18.8404 15.9029 18.8822 16.4135 18.9701 16.8888C19.0355 17.26 19.1478 17.5821 19.2936 17.8168C19.4322 18.0224 19.5956 18.1318 19.7626 18.131C19.9299 18.1336 20.0939 18.0295 20.2349 17.8311C20.3865 17.6071 20.5046 17.2892 20.5746 16.9174C20.6774 16.4348 20.7315 15.9087 20.7331 15.3755C20.7395 14.8664 20.6965 14.3601 20.607 13.8906C20.5336 13.5095 20.4138 13.1809 20.2608 12.9412C20.1214 12.7262 19.9553 12.6115 19.7853 12.6128C19.6124 12.6072 19.4433 12.7249 19.3033 12.9484C19.1561 13.1951 19.0438 13.5294 18.9798 13.9121C18.8971 14.378 18.8565 14.8751 18.8601 15.3755L18.8472 15.3897ZM22.6967 18.4879V9.09354C22.684 8.74026 22.7312 8.3891 22.8293 8.10845C22.8729 7.99776 22.9272 7.91013 22.9883 7.85203C23.0493 7.79398 23.1155 7.76693 23.1819 7.77294C23.249 7.76693 23.3158 7.79318 23.3779 7.84986C23.4398 7.90655 23.4955 7.99236 23.541 8.10133C23.6402 8.38097 23.6887 8.73218 23.6768 9.08643V18.4808C23.6878 18.8359 23.6381 19.1872 23.5377 19.4658C23.4925 19.5735 23.4373 19.6585 23.3759 19.7151C23.3146 19.7718 23.2484 19.7987 23.1819 19.7942C23.1158 19.7983 23.0501 19.7696 22.9896 19.7103C22.9292 19.651 22.8755 19.5626 22.8325 19.4516C22.7348 19.1757 22.6865 18.8301 22.6967 18.4808V18.4879ZM27.4294 15.9323H25.5111C25.5093 16.383 25.5558 16.8282 25.6469 17.2315C25.7209 17.5763 25.8384 17.8668 25.9852 18.0681C26.1321 18.2694 26.3022 18.373 26.475 18.3665C26.5843 18.3688 26.6932 18.3376 26.7985 18.2737C26.8983 18.2099 26.9931 18.1137 27.08 17.9882C27.1686 17.864 27.2529 17.7257 27.3323 17.5741C27.4099 17.4314 27.5091 17.2315 27.6299 16.9745C27.692 16.8709 27.769 16.8202 27.8467 16.8317C27.9352 16.8248 28.0217 16.891 28.0893 17.0173C28.1211 17.0825 28.146 17.1623 28.1623 17.2512C28.1785 17.34 28.1856 17.4357 28.1831 17.5313C28.178 17.7853 28.1423 18.0318 28.0795 18.2452C27.9945 18.5384 27.8847 18.7928 27.7561 18.9947C27.5967 19.2582 27.4185 19.4608 27.2288 19.5944C26.9926 19.7607 26.7456 19.8402 26.4977 19.8299C26.23 19.8593 25.9625 19.766 25.7119 19.5558C25.4614 19.3458 25.2333 19.0235 25.042 18.6092C24.8597 18.1762 24.7185 17.6669 24.6268 17.1115C24.5352 16.5561 24.4949 15.9658 24.5082 15.3755C24.5058 14.7712 24.5495 14.1702 24.6376 13.598C24.7164 13.0682 24.8454 12.5814 25.0161 12.1703C25.1864 11.7721 25.3954 11.4645 25.6275 11.2708C25.8847 11.0554 26.158 10.9488 26.433 10.9567C26.7723 10.9416 27.1073 11.1264 27.4034 11.4921C27.663 11.8177 27.876 12.2975 28.0181 12.877C28.1587 13.4208 28.2334 14.0355 28.2348 14.6616C28.2348 15.2041 28.1648 15.5563 28.0246 15.7181C27.8363 15.8899 27.6326 15.9632 27.4294 15.9323ZM25.5111 14.7045H27.2903C27.2895 14.0974 27.1935 13.5097 27.0185 13.0412C26.9375 12.8625 26.8403 12.7238 26.7332 12.634C26.6262 12.5442 26.5117 12.5053 26.3974 12.5201C26.2849 12.5124 26.173 12.5581 26.0692 12.6542C25.9653 12.7502 25.8721 12.8944 25.7957 13.0769C25.6243 13.5381 25.5244 14.1087 25.5111 14.7045ZM29.8684 9.02217V12.3273C30.0316 11.94 30.2216 11.6123 30.4314 11.3565C30.6525 11.1178 30.8969 11.0026 31.143 11.021C31.4452 11.0069 31.7428 11.1853 32.0003 11.5349C32.2535 11.8939 32.4528 12.4106 32.5728 13.0198C32.7154 13.7444 32.785 14.5286 32.7766 15.3184C32.7797 15.9294 32.7416 16.5381 32.6634 17.1244C32.5971 17.6408 32.4873 18.1251 32.34 18.5521C32.1997 18.9457 32.0204 19.2632 31.8159 19.4801C31.6049 19.7021 31.3736 19.8145 31.1398 19.8085C30.994 19.8016 30.8492 19.7511 30.7095 19.6586C30.5955 19.5886 30.4865 19.4828 30.386 19.3445C30.3005 19.229 30.2203 19.0951 30.1467 18.9447C30.082 18.802 29.9957 18.595 29.8879 18.3237V18.5378C29.8986 18.8709 29.8511 19.2004 29.7552 19.4587C29.714 19.5573 29.664 19.6359 29.6083 19.69C29.5526 19.744 29.4926 19.7722 29.4318 19.7728C29.3707 19.7754 29.3102 19.7486 29.2543 19.6944C29.1985 19.6401 29.1486 19.5597 29.1083 19.4587C29.0183 19.1945 28.9747 18.8674 28.9853 18.5378V9.115C28.9742 8.76409 29.0163 8.41499 29.105 8.12273C29.1437 8.01583 29.193 7.92997 29.2491 7.87182C29.3051 7.81362 29.3665 7.7847 29.4285 7.78722C29.494 7.77844 29.5595 7.80282 29.6201 7.85849C29.6806 7.91417 29.7346 7.99967 29.7779 8.10845C29.8544 8.37865 29.8864 8.69887 29.8684 9.01505V9.02217ZM29.9138 15.4469C29.8927 16.1579 29.988 16.8621 30.1822 17.4314C30.2668 17.6608 30.374 17.8445 30.4956 17.9682C30.6174 18.092 30.7503 18.1526 30.8842 18.1452C31.0098 18.1458 31.1337 18.0815 31.2461 17.9576C31.3584 17.8336 31.456 17.6534 31.5312 17.4314C31.725 16.8353 31.8168 16.1068 31.79 15.3755C31.7932 14.8888 31.7559 14.4049 31.68 13.9478C31.6154 13.5677 31.5032 13.236 31.3565 12.9912C31.2182 12.7654 31.0498 12.6474 30.8777 12.6557C30.6999 12.6498 30.5257 12.7672 30.3796 12.9912C30.2298 13.2359 30.1134 13.5668 30.0431 13.9478C29.9551 14.4256 29.9121 14.9382 29.917 15.454L29.9138 15.4469ZM36.0407 18.5878C35.8304 18.9586 35.5986 19.2658 35.3516 19.5015C35.1152 19.7106 34.8623 19.8149 34.6076 19.8085C34.3832 19.8142 34.1614 19.7016 33.9606 19.4801C33.7792 19.2789 33.6268 18.9699 33.5207 18.5878C33.4184 18.2208 33.3646 17.798 33.3654 17.3671C33.3598 16.8091 33.4513 16.2676 33.621 15.8538C33.8071 15.4155 34.052 15.1203 34.3197 15.0114L34.7823 14.7973C35.0281 14.6878 35.2438 14.5855 35.4293 14.4903C35.6147 14.3951 35.8056 14.2833 36.0018 14.1548C36.007 13.7115 35.953 13.2746 35.8466 12.8984C35.7662 12.7377 35.67 12.6206 35.5656 12.5562C35.4612 12.4917 35.3513 12.4818 35.2449 12.5272C35.0516 12.5015 34.8585 12.5799 34.682 12.7556C34.5486 12.9296 34.4373 13.1751 34.3585 13.4695C34.268 13.774 34.2032 13.9763 34.1644 14.0762C34.1309 14.1349 34.0926 14.1783 34.0515 14.2041C34.0104 14.2297 33.9674 14.2373 33.9251 14.2262C33.819 14.218 33.7184 14.121 33.6436 13.9549C33.6047 13.8808 33.5738 13.7886 33.5531 13.6849C33.5324 13.5811 33.5225 13.4686 33.5239 13.3552C33.5285 12.9517 33.5933 12.5628 33.7083 12.2488C33.8593 11.8447 34.0572 11.5388 34.2809 11.3636C34.5913 11.1112 34.9207 10.9925 35.2513 11.0138C35.5965 10.9832 35.9412 11.097 36.2671 11.3493C36.4978 11.5401 36.6858 11.9216 36.7912 12.413C36.9035 13.0267 36.9553 13.6862 36.9432 14.3475C36.9432 14.8568 36.9432 15.2851 36.9432 15.6325C36.9432 15.9847 36.9432 16.3773 36.9432 16.8103C36.9447 17.2414 36.9753 17.6697 37.0338 18.081C37.0778 18.3561 37.1082 18.6409 37.1244 18.9304C37.1224 19.0485 37.1086 19.1642 37.084 19.2691C37.0594 19.374 37.0246 19.4656 36.982 19.5372C36.8935 19.7141 36.778 19.811 36.6585 19.8085C36.5444 19.7944 36.4375 19.6816 36.3609 19.4944C36.2361 19.2211 36.1274 18.9141 36.0374 18.5807L36.0407 18.5878ZM35.9759 15.4611C35.7707 15.6151 35.5611 15.7391 35.3484 15.8323C35.0745 15.9608 34.8847 16.056 34.779 16.1179C34.668 16.1861 34.5652 16.308 34.4782 16.4748C34.4321 16.5633 34.3954 16.6731 34.3708 16.7966C34.3462 16.92 34.3342 17.0539 34.3359 17.1887C34.3351 17.3464 34.3497 17.5026 34.3788 17.6467C34.4078 17.7908 34.4505 17.9194 34.5041 18.0239C34.626 18.261 34.785 18.3839 34.9472 18.3665C35.1338 18.3714 35.3182 18.2758 35.4843 18.0881C35.6339 17.9329 35.7598 17.6848 35.8466 17.3743C35.9514 16.8695 35.997 16.3148 35.9792 15.7609L35.9759 15.4611ZM38.9036 16.6747V18.4808C38.9145 18.8359 38.8648 19.1872 38.7644 19.4658C38.7192 19.5735 38.664 19.6585 38.6026 19.7151C38.5413 19.7718 38.4751 19.7987 38.4086 19.7942C38.3428 19.7982 38.2774 19.7702 38.217 19.7122C38.1566 19.6542 38.1028 19.5677 38.0592 19.4587C37.96 19.1791 37.9115 18.8278 37.9234 18.4736V12.4558C37.9234 11.504 38.0829 11.0281 38.4021 11.0281C38.4693 11.0147 38.5368 11.039 38.5985 11.099C38.6602 11.1589 38.7139 11.2524 38.7547 11.3708C38.837 11.6745 38.8785 12.0235 38.8744 12.3773C38.9684 11.9987 39.0909 11.6583 39.2368 11.3708C39.3778 11.1292 39.5534 11.0076 39.7317 11.0281C39.941 11.031 40.1466 11.1488 40.3301 11.3708C40.4132 11.4437 40.4848 11.5681 40.5365 11.729C40.5882 11.8899 40.6176 12.0803 40.6213 12.2773C40.6233 12.3998 40.6134 12.5219 40.5921 12.6352C40.5709 12.7485 40.5389 12.8504 40.4984 12.9341C40.4277 13.0944 40.3312 13.1868 40.2299 13.1911C40.1414 13.162 40.0546 13.1117 39.9711 13.0412C39.8535 12.9499 39.7301 12.8994 39.6055 12.8913C39.4782 12.879 39.3532 12.9676 39.2529 13.1411C39.1537 13.3319 39.0799 13.5787 39.0394 13.855C38.9845 14.235 38.9498 14.6279 38.9359 15.0257C38.9143 15.473 38.9036 16.0203 38.9036 16.6675V16.6747ZM44.1279 16.9602C44.1394 17.5084 44.069 18.0497 43.9276 18.5011C43.7862 18.9525 43.5815 19.2889 43.3451 19.4587C43.0441 19.6937 42.7261 19.805 42.407 19.7871C42.0972 19.8045 41.7891 19.6831 41.5012 19.4302C41.2831 19.2468 41.0912 18.9388 40.9448 18.5378C40.8344 18.233 40.772 17.8571 40.7669 17.4671C40.7662 17.3543 40.7759 17.2424 40.7953 17.1381C40.8148 17.0339 40.8436 16.9393 40.8801 16.8603C40.9183 16.7771 40.9639 16.7121 41.014 16.6691C41.064 16.6262 41.1175 16.6062 41.1712 16.6105C41.2136 16.6022 41.2562 16.6125 41.2967 16.6407C41.3372 16.6689 41.3748 16.7144 41.4074 16.7746C41.4713 16.9119 41.5249 17.071 41.5659 17.2458C41.6518 17.5964 41.7764 17.8934 41.9282 18.1095C42.1036 18.3185 42.3017 18.4172 42.5008 18.3951C42.6713 18.4094 42.8396 18.3072 42.9828 18.1024C43.0368 18.0355 43.0823 17.9395 43.1151 17.8235C43.1479 17.7075 43.1669 17.5751 43.1704 17.4385C43.1757 17.2727 43.1601 17.1068 43.1252 16.9593C43.0904 16.8119 43.0377 16.6886 42.9731 16.6033C42.7692 16.3699 42.5514 16.2017 42.3261 16.1036C42.0444 15.9583 41.7685 15.7625 41.5012 15.5183C41.3056 15.3407 41.1317 15.0644 40.9933 14.7116C40.8643 14.367 40.7964 13.9306 40.8025 13.4838C40.8023 13.0447 40.8632 12.616 40.9771 12.2559C41.1072 11.8481 41.2865 11.529 41.4947 11.335C41.7565 11.0915 42.0389 10.9746 42.3229 10.9924C42.5527 10.9856 42.7821 11.0432 43.0054 11.1637C43.1852 11.259 43.3567 11.4181 43.5133 11.6349C43.6406 11.7988 43.7509 12.0202 43.8368 12.2845C43.9042 12.4932 43.9414 12.7421 43.9435 12.9983C43.945 13.1113 43.9357 13.2238 43.9162 13.3283C43.8967 13.4328 43.8674 13.5271 43.8303 13.6051C43.7408 13.7749 43.6245 13.8596 43.5068 13.8407C43.414 13.8448 43.3235 13.7765 43.2513 13.648C43.1616 13.4769 43.0802 13.2854 43.0086 13.0769C42.9373 12.8714 42.8482 12.6992 42.7466 12.57C42.6195 12.4287 42.478 12.3622 42.3358 12.3773C42.1802 12.3639 42.0262 12.4507 41.8926 12.6271C41.8408 12.6863 41.7972 12.7753 41.7665 12.8846C41.7358 12.9939 41.719 13.1195 41.7179 13.2482C41.7174 13.3572 41.7288 13.4649 41.7514 13.5619C41.774 13.6589 41.8069 13.7424 41.8473 13.805C41.9531 13.9696 42.0714 14.0905 42.1967 14.1619C42.3434 14.2571 42.5439 14.3761 42.7984 14.5188C43.0563 14.6462 43.3062 14.8427 43.5424 15.1042C43.7144 15.2946 43.8639 15.5708 43.9791 15.9109C44.0782 16.2194 44.1303 16.5893 44.1279 16.9674V16.9602ZM13.7036 37.0053C13.9457 36.5659 14.1226 35.9767 14.2115 35.3134C14.2966 34.8237 14.291 34.2797 14.196 33.799C14.101 33.3183 13.9242 32.9392 13.7036 32.7436C12.2156 31.0803 11.2548 34.0428 11.1157 34.7423C10.9766 35.4419 10.7275 36.5269 10.8893 39.0254C11.051 41.5239 11.5912 43.8297 13.2993 44.7363C14.9334 45.5736 16.6487 45.1321 18.1517 43.487C19.6591 41.9023 22.4864 39.1182 23.1981 38.847C23.6651 38.5943 24.1439 38.4626 24.6247 38.4544V34.6495C24.2517 33.1698 23.6914 31.9619 23.0124 31.1734C22.3333 30.3849 21.5649 30.0499 20.801 30.2093C18.074 30.6805 16.9903 33.7786 16.3271 35.1064C15.664 36.4342 14.4315 39.5608 13.6098 39.0112C12.7882 38.4615 12.552 36.2129 12.8431 35.5133C13.1343 34.8137 13.3607 34.9422 13.5451 35.5133C13.6562 35.9717 13.7119 36.4855 13.7069 37.0053H13.7036Z" fill="black"/>
<path d="M35.4487 37.0052C35.2066 36.5659 35.0297 35.9766 34.9408 35.3134C34.8558 34.8237 34.8613 34.2797 34.9563 33.799C35.0513 33.3183 35.2282 32.9392 35.4487 32.7435C36.9367 31.0802 37.8975 34.0427 38.0366 34.7423C38.1757 35.4419 38.4248 36.5269 38.263 39.0254C38.1013 41.5239 37.561 43.8297 35.8531 44.7362C34.2189 45.5736 32.5036 45.1321 31.0007 43.487C29.4932 41.9022 26.6659 39.1182 25.9542 38.847C25.4872 38.5943 25.0085 38.4625 24.5276 38.4544V34.6495C24.9007 33.1698 25.4609 31.9619 26.1399 31.1734C26.819 30.3849 27.5874 30.0499 28.3513 30.2093C31.0783 30.6805 32.162 33.7786 32.8251 35.1064C33.4883 36.4342 34.7208 39.5608 35.5425 39.0112C36.3642 38.4615 36.6003 36.2128 36.3091 35.5133C36.018 34.8137 35.7916 34.9422 35.6072 35.5133C35.4961 35.9717 35.4404 36.4855 35.4454 37.0052H35.4487Z" fill="black"/>
</svg>
