<svg width="49" height="53" viewBox="0 0 49 53" fill="none" xmlns="http://www.w3.org/2000/svg">
<g clip-path="url(#clip0_2:15)">
<path d="M48.3508 25.0011L26.3121 2.49571L24.1766 0.314983L7.5864 17.2564L0.000100076 25.0011C-0.378832 25.39 -0.591553 25.9163 -0.591553 26.465C-0.591553 27.0136 -0.378832 27.54 0.000100076 27.9289L15.1567 43.4065L24.1766 52.6149L40.7645 35.6735L41.0229 35.412L48.3508 27.9406C48.5407 27.7481 48.6915 27.5191 48.7943 27.2669C48.8972 27.0146 48.9501 26.7441 48.9501 26.4708C48.9501 26.1976 48.8972 25.927 48.7943 25.6748C48.6915 25.4225 48.5407 25.1936 48.3508 25.0011ZM24.1766 34.1979L16.604 26.465L24.1766 18.7321L31.7469 26.465L24.1766 34.1979Z" fill="#2684FF"/>
<path d="M24.1765 18.7321C21.7949 16.3006 20.4524 13.0056 20.4421 9.56665C20.4318 6.12771 21.7547 2.82432 24.1216 0.378078L7.552 17.2915L16.5696 26.5L24.1765 18.7321Z" fill="url(#paint0_linear_2:15)"/>
<path d="M31.7674 26.4433L24.1765 34.1973C26.5671 36.6391 27.9101 39.9506 27.9101 43.4035C27.9101 46.8563 26.5671 50.1678 24.1765 52.6098L40.7919 35.6518L31.7674 26.4433Z" fill="url(#paint1_linear_2:15)"/>
</g>
<defs>
<linearGradient id="paint0_linear_2:15" x1="22.8207" y1="10.9081" x2="12.0245" y2="21.4781" gradientUnits="userSpaceOnUse">
<stop offset="0.18" stop-color="#0052CC"/>
<stop offset="1" stop-color="#2684FF"/>
</linearGradient>
<linearGradient id="paint1_linear_2:15" x1="1929.13" y1="2270.73" x2="3022.18" y2="2964.66" gradientUnits="userSpaceOnUse">
<stop offset="0.18" stop-color="#0052CC"/>
<stop offset="1" stop-color="#2684FF"/>
</linearGradient>
<clipPath id="clip0_2:15">
<rect width="49" height="53" fill="white"/>
</clipPath>
</defs>
</svg>
