<svg width="98" height="105" viewBox="0 0 98 105" fill="none" xmlns="http://www.w3.org/2000/svg">
<g clip-path="url(#clip0_24:18)">
<path d="M96.7016 49.5304L52.6242 4.94433L48.3532 0.624023L15.1728 34.1873L0.00019562 49.5304C-0.757669 50.301 -1.18311 51.3437 -1.18311 52.4307C-1.18311 53.5176 -0.757669 54.5603 0.00019562 55.3309L30.3134 85.994L48.3532 104.237L81.529 70.674L82.0457 70.1559L96.7016 55.354C97.0814 54.9727 97.3829 54.519 97.5886 54.0193C97.7943 53.5195 97.9002 52.9836 97.9002 52.4422C97.9002 51.9009 97.7943 51.3649 97.5886 50.8652C97.3829 50.3654 97.0814 49.9118 96.7016 49.5304V49.5304ZM48.3532 67.7506L33.208 52.4307L48.3532 37.1107L63.4938 52.4307L48.3532 67.7506Z" fill="#2684FF"/>
<path d="M48.353 37.1107C43.5898 32.2937 40.9047 25.7658 40.8842 18.9528C40.8636 12.1398 43.5093 5.59535 48.2432 0.749023L15.104 34.2567L33.1392 52.5L48.353 37.1107Z" fill="url(#paint0_linear_24:18)"/>
<path d="M63.5348 52.3877L48.353 67.7493C53.1342 72.5869 55.8201 79.1474 55.8201 85.988C55.8201 92.8286 53.1342 99.3891 48.353 104.227L81.5837 70.631L63.5348 52.3877Z" fill="url(#paint1_linear_24:18)"/>
</g>
<defs>
<linearGradient id="paint0_linear_24:18" x1="45.6413" y1="21.6104" x2="24.2494" y2="42.7537" gradientUnits="userSpaceOnUse">
<stop offset="0.18" stop-color="#0052CC"/>
<stop offset="1" stop-color="#2684FF"/>
</linearGradient>
<linearGradient id="paint1_linear_24:18" x1="3858.25" y1="4498.62" x2="6032.4" y2="5892.03" gradientUnits="userSpaceOnUse">
<stop offset="0.18" stop-color="#0052CC"/>
<stop offset="1" stop-color="#2684FF"/>
</linearGradient>
<clipPath id="clip0_24:18">
<rect width="97.9" height="104.86" fill="white"/>
</clipPath>
</defs>
</svg>
