<svg width="98" height="105" viewBox="0 0 98 105" fill="none" xmlns="http://www.w3.org/2000/svg">
<g clip-path="url(#clip0_20:4)">
<path d="M0 0H97.9V104.86H0V0Z" fill="#F7DF1E"/>
<path d="M25.7415 87.6287L33.2335 82.7723C34.6788 85.5171 35.9936 87.8395 39.1474 87.8395C42.1705 87.8395 44.0764 86.5729 44.0764 81.6461V48.1409H53.2766V81.7855C53.2766 91.9918 47.691 96.6375 39.5418 96.6375C32.1821 96.6375 27.9099 92.5547 25.7413 87.6278" fill="black"/>
<path d="M58.2738 86.5728L65.7649 81.9272C67.7369 85.3765 70.2998 87.9103 74.834 87.9103C78.646 87.9103 81.0769 85.8689 81.0769 83.0533C81.0769 79.6747 78.5798 78.4779 74.3739 76.5077L72.0744 75.4511C65.4367 72.425 61.0335 68.6241 61.0335 60.5996C61.0335 53.2088 66.2907 47.5775 74.5056 47.5775C80.3544 47.5775 84.5603 49.7598 87.5829 55.4613L80.4197 60.3882C78.8424 57.3618 77.1343 56.1654 74.5058 56.1654C71.8114 56.1654 70.1026 57.9954 70.1026 60.3882C70.1026 63.3446 71.8114 64.5415 75.7539 66.3718L78.0538 67.4275C85.8741 71.0176 90.2773 74.6773 90.2773 82.9125C90.2773 91.782 83.7715 96.6383 75.0313 96.6383C66.4882 96.6383 60.9679 92.2745 58.274 86.5728" fill="black"/>
</g>
<defs>
<clipPath id="clip0_20:4">
<rect width="97.9" height="104.86" fill="white"/>
</clipPath>
</defs>
</svg>
