<svg width="49" height="53" viewBox="0 0 49 53" fill="none" xmlns="http://www.w3.org/2000/svg">
<path d="M0 0H48.95V52.9293H0V0Z" fill="#F7DF1E"/>
<path d="M12.8707 44.2316L16.6167 41.7803C17.3394 43.1658 17.9968 44.338 19.5737 44.338C21.0852 44.338 22.0382 43.6987 22.0382 41.2118V24.2997H26.6383V41.2822C26.6383 46.434 23.8455 48.7789 19.7709 48.7789C16.091 48.7789 13.9549 46.7181 12.8706 44.2312" fill="black"/>
<path d="M29.1369 43.6987L32.8825 41.3537C33.8685 43.0948 35.1499 44.3738 37.417 44.3738C39.323 44.3738 40.5385 43.3433 40.5385 41.9221C40.5385 40.2168 39.2899 39.6127 37.187 38.6182L36.0372 38.0848C32.7184 36.5574 30.5168 34.6388 30.5168 30.5884C30.5168 26.8578 33.1454 24.0153 37.2528 24.0153C40.1772 24.0153 42.2802 25.1169 43.7915 27.9948L40.2099 30.4817C39.4212 28.9541 38.5672 28.3502 37.2529 28.3502C35.9057 28.3502 35.0513 29.2739 35.0513 30.4817C35.0513 31.9739 35.9057 32.5781 37.877 33.502L39.0269 34.0348C42.9371 35.847 45.1387 37.6943 45.1387 41.8511C45.1387 46.3281 41.8858 48.7793 37.5157 48.7793C33.2441 48.7793 30.484 46.5767 29.137 43.6987" fill="black"/>
</svg>
