<svg width="98" height="105" viewBox="0 0 98 105" fill="none" xmlns="http://www.w3.org/2000/svg">
<g clip-path="url(#clip0_22:2)">
<path d="M97.9 52.4394C97.9 46.3431 89.7783 40.5658 77.3262 36.983C80.1998 25.0532 78.9226 15.5618 73.2953 12.523C71.9982 11.8103 70.4816 11.4726 68.8253 11.4726V15.6556C69.7433 15.6556 70.4816 15.8244 71.1002 16.1433C73.8141 17.6064 74.9915 23.1774 74.0735 30.3428C73.854 32.1061 73.4948 33.9631 73.0558 35.8576C69.1446 34.9572 64.8742 34.2632 60.3843 33.813C57.6904 30.3428 54.8966 27.1915 52.083 24.4342C58.5883 18.7506 64.6946 15.6368 68.8453 15.6368V11.4539C63.3576 11.4539 56.1738 15.1304 48.9101 21.508C41.6464 15.1679 34.4626 11.5289 28.9749 11.5289V15.7118C33.1056 15.7118 39.2318 18.8069 45.7372 24.4529C42.9435 27.2103 40.1498 30.3428 37.4957 33.813C32.9859 34.2632 28.7155 34.9572 24.8043 35.8763C24.3453 34.0006 24.0061 32.1811 23.7666 30.4366C22.8287 23.2712 23.9861 17.7002 26.68 16.2183C27.2787 15.8807 28.057 15.7306 28.9749 15.7306V11.5476C27.2987 11.5476 25.7821 11.8853 24.465 12.5981C18.8576 15.6368 17.6004 25.1094 20.4939 37.0018C8.08184 40.6033 0 46.3619 0 52.4394C0 58.5356 8.12175 64.313 20.5738 67.8957C17.7002 79.8256 18.9774 89.3169 24.6047 92.3557C25.9018 93.0685 27.4184 93.4061 29.0946 93.4061C34.5823 93.4061 41.7661 89.7296 49.0298 83.352C56.2935 89.6921 63.4774 93.3311 68.965 93.3311C70.6413 93.3311 72.1579 92.9935 73.4749 92.2807C79.0823 89.2419 80.3395 79.7693 77.446 67.8769C89.8182 64.2942 97.9 58.5169 97.9 52.4394V52.4394ZM71.9184 39.928C71.18 42.3477 70.2621 44.8425 69.2244 47.3373C68.4063 45.8367 67.5482 44.3361 66.6103 42.8354C65.6924 41.3348 64.7146 39.8717 63.7368 38.4461C66.5704 38.8401 69.3043 39.3278 71.9184 39.928ZM62.7789 59.9049C61.2224 62.4372 59.626 64.8382 57.9697 67.0704C54.9964 67.3142 51.9832 67.4455 48.95 67.4455C45.9368 67.4455 42.9235 67.3142 39.9702 67.0891C38.3139 64.8569 36.6975 62.4747 35.141 59.9612C33.6244 57.5039 32.2475 55.0092 30.9904 52.4956C32.2276 49.9821 33.6244 47.4686 35.1211 45.0113C36.6776 42.479 38.274 40.0781 39.9303 37.8459C42.9036 37.6021 45.9168 37.4707 48.95 37.4707C51.9632 37.4707 54.9765 37.6021 57.9298 37.8271C59.5861 40.0593 61.2025 42.4415 62.759 44.9551C64.2756 47.4123 65.6525 49.9071 66.9096 52.4206C65.6525 54.9341 64.2756 57.4477 62.7789 59.9049ZM69.2244 57.4664C70.302 59.98 71.22 62.4935 71.9783 64.932C69.3641 65.5322 66.6103 66.0387 63.7567 66.4326C64.7345 64.9883 65.7123 63.5064 66.6303 61.987C67.5482 60.4864 68.4063 58.967 69.2244 57.4664ZM48.9899 77.4809C47.1341 75.6801 45.2783 73.6731 43.4424 71.4784C45.2383 71.5534 47.0742 71.6097 48.93 71.6097C50.8058 71.6097 52.6617 71.5722 54.4776 71.4784C52.6816 73.6731 50.8258 75.6801 48.9899 77.4809ZM34.1433 66.4326C31.3096 66.0387 28.5758 65.551 25.9617 64.9507C26.7 62.531 27.6179 60.0362 28.6556 57.5415C29.4738 59.0421 30.3318 60.5427 31.2697 62.0433C32.2076 63.5439 33.1655 65.007 34.1433 66.4326ZM48.8901 27.3979C50.746 29.1986 52.6018 31.2057 54.4377 33.4003C52.6417 33.3253 50.8058 33.269 48.95 33.269C47.0742 33.269 45.2184 33.3065 43.4025 33.4003C45.1984 31.2057 47.0543 29.1986 48.8901 27.3979ZM34.1233 38.4461C33.1455 39.8905 32.1677 41.3723 31.2498 42.8917C30.3318 44.3923 29.4738 45.8929 28.6556 47.3936C27.578 44.88 26.6601 42.3665 25.9018 39.928C28.5159 39.3465 31.2697 38.8401 34.1233 38.4461V38.4461ZM16.0639 61.9308C8.99978 59.0983 4.43004 55.3843 4.43004 52.4394C4.43004 49.4944 8.99978 45.7616 16.0639 42.948C17.78 42.254 19.6558 41.635 21.5915 41.0535C22.7289 44.73 24.2256 48.5565 26.0814 52.4769C24.2455 56.3785 22.7688 60.1863 21.6513 63.844C19.6758 63.2625 17.8 62.6248 16.0639 61.9308ZM26.7998 88.7355C24.0859 87.2724 22.9085 81.7013 23.8265 74.5359C24.046 72.7727 24.4052 70.9157 24.8442 69.0211C28.7554 69.9215 33.0258 70.6155 37.5157 71.0657C40.2096 74.5359 43.0034 77.6872 45.817 80.4446C39.3117 86.1281 33.2054 89.2419 29.0547 89.2419C28.1567 89.2232 27.3984 89.0543 26.7998 88.7355V88.7355ZM74.1334 74.4421C75.0713 81.6075 73.9139 87.1786 71.22 88.6604C70.6213 88.9981 69.843 89.1481 68.9251 89.1481C64.7944 89.1481 58.6682 86.0531 52.1628 80.4071C54.9565 77.6497 57.7502 74.5172 60.4043 71.047C64.9141 70.5968 69.1845 69.9028 73.0957 68.9836C73.5547 70.8782 73.9139 72.6977 74.1334 74.4421V74.4421ZM81.8161 61.9308C80.1 62.6248 78.2242 63.2438 76.2886 63.8253C75.1511 60.1488 73.6545 56.3222 71.7987 52.4019C73.6345 48.5003 75.1112 44.6925 76.2287 41.0347C78.2043 41.6162 80.08 42.254 81.8361 42.948C88.9002 45.7804 93.47 49.4944 93.47 52.4394C93.45 55.3843 88.8803 59.1171 81.8161 61.9308V61.9308Z" fill="#61DAFB"/>
<path d="M48.9301 61.0116C53.9666 61.0116 58.0496 57.1736 58.0496 52.4393C58.0496 47.705 53.9666 43.8671 48.9301 43.8671C43.8935 43.8671 39.8105 47.705 39.8105 52.4393C39.8105 57.1736 43.8935 61.0116 48.9301 61.0116Z" fill="#61DAFB"/>
</g>
<defs>
<clipPath id="clip0_22:2">
<rect width="97.9" height="104.86" fill="white"/>
</clipPath>
</defs>
</svg>
