<svg width="98" height="105" viewBox="0 0 98 105" fill="none" xmlns="http://www.w3.org/2000/svg">
<g clip-path="url(#clip0_22:6)">
<path d="M0 0H97.9V104.86H0V0Z" fill="#222222"/>
<path d="M48.8742 61.1352C53.3957 61.1352 57.061 57.2093 57.061 52.3664C57.061 47.5236 53.3957 43.5977 48.8742 43.5977C44.3528 43.5977 40.6875 47.5236 40.6875 52.3664C40.6875 57.2093 44.3528 61.1352 48.8742 61.1352Z" fill="#00D8FF"/>
<path d="M48.8743 34.5391C59.8639 34.5391 70.0744 36.2285 77.7714 39.0654C87.0457 42.4849 92.7489 47.6691 92.7489 52.3635C92.7489 57.255 86.7049 62.7638 76.746 66.2962C69.2167 68.968 59.3066 70.3647 48.8743 70.3647C38.1769 70.3647 28.0503 69.0549 20.4345 66.2672C10.8003 62.7406 4.99707 57.1623 4.99707 52.3635C4.99707 47.7067 10.4432 42.5631 19.5876 39.1495C27.3145 36.2662 37.7765 34.5391 48.8743 34.5391V34.5391Z" stroke="#00D8FF" stroke-width="144.746" stroke-miterlimit="10"/>
<path d="M34.3864 43.5049C39.8758 33.3076 46.3446 24.6779 52.486 18.9547C59.8854 12.058 66.9277 9.3572 70.7235 11.7015C74.6789 14.1444 76.1155 22.5045 73.9971 33.5133C72.3955 41.8358 68.5754 51.726 63.3619 61.4076C58.0186 71.3326 51.8989 80.0753 45.8413 85.7492C38.1768 92.927 30.7638 95.5235 26.8841 93.127C23.1181 90.8 21.6788 83.1788 23.4834 72.9872C25.0093 64.3691 28.8402 53.8008 34.3864 43.5049V43.5049Z" stroke="#00D8FF" stroke-width="144.746" stroke-miterlimit="10"/>
<path d="M34.4001 61.4275C28.8945 51.2388 25.1447 40.9285 23.581 32.3712C21.698 22.0608 23.0291 14.1759 26.8221 11.8258C30.7748 9.37425 38.2527 12.217 46.0986 19.6788C52.0317 25.3209 58.1217 33.8056 63.3486 43.4785C68.7082 53.3948 72.7258 63.4386 74.2868 71.8915C76.2645 82.5902 74.6629 90.7649 70.7859 93.1672C67.0226 95.4999 60.1399 93.031 52.7973 86.2646C46.5964 80.5473 39.9599 71.7147 34.4001 61.4275V61.4275Z" stroke="#00D8FF" stroke-width="144.746" stroke-miterlimit="10"/>
</g>
<defs>
<clipPath id="clip0_22:6">
<rect width="97.9" height="104.86" fill="white"/>
</clipPath>
</defs>
</svg>
