<svg width="49" height="53" viewBox="0 0 49 53" fill="none" xmlns="http://www.w3.org/2000/svg">
<path d="M48.95 26.4694C48.95 23.3922 44.8892 20.4761 38.6631 18.6676C40.0999 12.6459 39.4613 7.85501 36.6477 6.32113C35.9991 5.96139 35.2408 5.79093 34.4127 5.79093V7.90235C34.8717 7.90235 35.2408 7.98756 35.5501 8.14852C36.907 8.88704 37.4958 11.6991 37.0368 15.3159C36.927 16.2059 36.7474 17.1433 36.5279 18.0996C34.5723 17.6451 32.4371 17.2948 30.1922 17.0675C28.8452 15.3159 27.4483 13.7252 26.0415 12.3335C29.2941 9.46459 32.3473 7.89286 34.4226 7.89286V5.78149C31.6788 5.78149 28.0869 7.63725 24.455 10.8564C20.8232 7.65618 17.2313 5.81935 14.4874 5.81935V7.93072C16.5528 7.93072 19.6159 9.49301 22.8686 12.3429C21.4718 13.7347 20.0749 15.3159 18.7479 17.0675C16.493 17.2948 14.3577 17.6451 12.4022 18.109C12.1727 17.1622 12.003 16.2438 11.8833 15.3632C11.4143 11.7464 11.993 8.93439 13.34 8.18638C13.6393 8.01597 14.0285 7.94021 14.4874 7.94021V5.82879C13.6493 5.82879 12.8911 5.99925 12.2325 6.35904C9.4288 7.89286 8.8002 12.6743 10.247 18.6771C4.04092 20.495 0 23.4017 0 26.4694C0 29.5465 4.06087 32.4628 10.2869 34.2712C8.8501 40.2929 9.4887 45.0838 12.3024 46.6176C12.9509 46.9774 13.7092 47.1478 14.5473 47.1478C17.2912 47.1478 20.8831 45.2921 24.5149 42.0729C28.1467 45.2732 31.7387 47.11 34.4825 47.11C35.3206 47.11 36.0789 46.9396 36.7374 46.5798C39.5411 45.0459 40.1698 40.2645 38.723 34.2617C44.9091 32.4533 48.95 29.5371 48.95 26.4694ZM35.9592 20.1541C35.59 21.3755 35.1311 22.6348 34.6122 23.8941C34.2032 23.1366 33.7741 22.3792 33.3051 21.6217C32.8462 20.8642 32.3573 20.1257 31.8684 19.4061C33.2852 19.605 34.6522 19.8512 35.9592 20.1541ZM31.3895 30.2377C30.6112 31.5159 29.813 32.7279 28.9848 33.8546C27.4982 33.9776 25.9916 34.0439 24.475 34.0439C22.9684 34.0439 21.4618 33.9776 19.9851 33.864C19.1569 32.7373 18.3487 31.5348 17.5705 30.2661C16.8122 29.0258 16.1238 27.7666 15.4952 26.4978C16.1138 25.2291 16.8122 23.9603 17.5606 22.72C18.3388 21.4418 19.137 20.2299 19.9652 19.1032C21.4518 18.9801 22.9584 18.9138 24.475 18.9138C25.9816 18.9138 27.4882 18.9801 28.9649 19.0937C29.793 20.2204 30.6012 21.4229 31.3795 22.6916C32.1378 23.9319 32.8262 25.1912 33.4548 26.4599C32.8262 27.7286 32.1378 28.9974 31.3895 30.2377ZM34.6122 29.0069C35.151 30.2756 35.61 31.5443 35.9892 32.7752C34.6821 33.0782 33.3051 33.3338 31.8783 33.5326C32.3672 32.8036 32.8562 32.0556 33.3152 31.2887C33.7741 30.5312 34.2032 29.7643 34.6122 29.0069ZM24.4949 39.1094C23.567 38.2004 22.6392 37.1874 21.7212 36.0796C22.6192 36.1174 23.5371 36.1459 24.465 36.1459C25.4029 36.1459 26.3309 36.1269 27.2388 36.0796C26.3408 37.1874 25.4129 38.2004 24.4949 39.1094ZM17.0716 33.5326C15.6548 33.3338 14.2879 33.0876 12.9809 32.7846C13.35 31.5633 13.8089 30.304 14.3278 29.0448C14.7369 29.8022 15.1659 30.5597 15.6348 31.3171C16.1038 32.0745 16.5828 32.8131 17.0716 33.5326ZM24.445 13.8294C25.373 14.7383 26.3009 15.7514 27.2188 16.8592C26.3208 16.8213 25.4029 16.7929 24.475 16.7929C23.5371 16.7929 22.6092 16.8119 21.7013 16.8592C22.5992 15.7514 23.5271 14.7383 24.445 13.8294ZM17.0616 19.4061C16.5728 20.1352 16.0838 20.8832 15.6249 21.6501C15.1659 22.4075 14.7369 23.165 14.3278 23.9225C13.789 22.6537 13.3301 21.385 12.9509 20.1541C14.2579 19.8606 15.6348 19.605 17.0616 19.4061ZM8.03195 31.2603C4.49989 29.8306 2.21502 27.9559 2.21502 26.4694C2.21502 24.9829 4.49989 23.0987 8.03195 21.6785C8.89 21.3282 9.8279 21.0158 10.7957 20.7222C11.3644 22.578 12.1128 24.5095 13.0407 26.4883C12.1228 28.4577 11.3844 30.3798 10.8257 32.226C9.8379 31.9325 8.9 31.6106 8.03195 31.2603ZM13.3999 44.7903C12.043 44.0518 11.4543 41.2397 11.9132 37.6229C12.023 36.7329 12.2026 35.7955 12.4221 34.8392C14.3777 35.2937 16.5129 35.644 18.7579 35.8713C20.1048 37.6229 21.5017 39.2135 22.9085 40.6054C19.6559 43.4742 16.6027 45.0459 14.5274 45.0459C14.0784 45.0365 13.6992 44.9512 13.3999 44.7903ZM37.0667 37.5755C37.5356 41.1924 36.957 44.0044 35.61 44.7524C35.3106 44.9228 34.9215 44.9986 34.4626 44.9986C32.3972 44.9986 29.3341 43.4363 26.0814 40.5864C27.4783 39.1946 28.8751 37.6134 30.2022 35.8618C32.4571 35.6346 34.5923 35.2843 36.5479 34.8203C36.7774 35.7766 36.957 36.695 37.0667 37.5755ZM40.9081 31.2603C40.05 31.6106 39.1121 31.9231 38.1443 32.2166C37.5756 30.3608 36.8272 28.4293 35.8993 26.4505C36.8172 24.4811 37.5556 22.5591 38.1143 20.7128C39.1021 21.0063 40.04 21.3282 40.918 21.6785C44.4501 23.1082 46.735 24.9829 46.735 26.4694C46.725 27.9559 44.4402 29.8401 40.9081 31.2603Z" fill="#61DAFB"/>
<path d="M24.465 30.7963C26.9833 30.7963 29.0248 28.8591 29.0248 26.4694C29.0248 24.0797 26.9833 22.1425 24.465 22.1425C21.9467 22.1425 19.9053 24.0797 19.9053 26.4694C19.9053 28.8591 21.9467 30.7963 24.465 30.7963Z" fill="#61DAFB"/>
</svg>
