<svg width="49" height="53" viewBox="0 0 49 53" fill="none" xmlns="http://www.w3.org/2000/svg">
<g clip-path="url(#clip0_2:29)">
<path d="M42.1237 30.4069C40.4124 30.4208 38.9305 31.0134 37.6876 31.8957C37.2287 30.5863 36.7698 29.4421 36.6935 28.5876C36.6074 27.5952 36.5022 26.9886 36.6074 25.8033C36.7124 24.6178 37.1905 22.9361 37.1905 22.7983C37.1808 22.6743 37.0852 22.0678 36.1006 22.054C35.116 22.0402 34.2649 22.3297 34.1693 22.7018C34.0737 23.074 33.8826 23.9286 33.7583 24.8107C33.5862 26.1064 31.7887 30.6964 30.7658 33.1085C30.4312 32.1712 30.1444 31.3442 30.0869 30.6825C30.0009 29.6902 29.8957 29.0835 30.0009 27.8983C30.1061 26.7128 30.5842 25.0313 30.5842 24.8934C30.5746 24.7694 30.479 24.1629 29.4944 24.1491C28.5095 24.1353 27.6587 24.4248 27.5631 24.7969C27.4675 25.1691 27.3624 26.0513 27.152 26.9058C26.9512 27.7604 24.561 35.4242 23.9396 37.4228C23.6241 38.4428 23.3469 39.2561 23.146 39.8074C22.9452 40.3588 23.1365 39.8487 23.1173 39.9039C22.9452 40.3725 22.8496 40.6344 22.8496 40.6344V40.6483C22.7158 40.9929 22.5724 41.3236 22.5054 41.3236C22.4576 41.3236 22.362 40.4001 22.5245 39.1321C22.8783 36.4717 23.7387 32.323 23.7292 32.1714C23.7292 32.1025 23.8917 31.3718 23.1746 30.9998C22.4767 30.6276 22.2282 31.2478 22.1707 31.2478C22.1134 31.2478 22.0656 31.4684 22.0656 31.4684C22.0656 31.4684 22.84 26.7958 20.5837 26.7958C19.1688 26.7958 17.2184 29.015 16.2528 31.0412C15.6409 31.5236 14.3407 32.5435 12.964 33.6326C12.4382 34.0461 11.8932 34.4872 11.3769 34.8869L11.2718 34.7212C8.5375 30.5172 3.47999 27.5399 3.69032 21.8886C3.7668 19.8348 4.26396 14.4178 13.4039 7.85683C20.8899 2.48118 26.8843 3.95603 27.9263 7.23652C29.4082 11.923 24.7236 20.6343 16.9414 21.8886C13.9776 22.371 12.4191 20.717 12.0272 20.0967C11.6161 19.4489 11.5588 19.4213 11.4058 19.5454C11.1572 19.7384 11.3102 20.3173 11.4058 20.6618C11.6353 21.5302 12.5913 23.074 14.2166 23.8459C15.641 24.5213 19.1212 24.8934 23.3278 22.5502C28.0412 19.9176 31.722 12.6122 30.6416 6.50603C29.5422 0.289571 22.3909 -1.75041 15.6315 1.70929C11.6064 3.77684 7.24685 7.00221 4.11098 11.2338C0.382372 16.2511 -0.210382 20.6343 0.038192 22.4537C0.908295 28.9458 7.113 33.1775 9.59875 36.3063C9.47445 36.4027 9.35975 36.4992 9.25455 36.582C8.0117 37.464 3.27922 41.0341 2.09371 44.8108C0.755235 49.0837 2.30404 52.1576 3.33658 52.571C6.5298 53.8531 9.7995 51.5508 11.5682 47.7606C13.3273 43.9701 13.117 39.0493 12.3043 36.8026L12.2756 36.7198L13.2507 35.8928C13.8818 35.3552 14.5033 34.8591 15.0482 34.4316C14.7423 35.6308 14.5223 37.0505 14.4077 39.118C14.2738 41.5441 14.9622 44.6867 15.8705 45.9272C16.272 46.4647 16.75 46.4785 17.0464 46.4785C18.098 46.4785 18.5761 45.2241 19.1019 43.7218C19.7521 41.8886 20.3256 39.7659 20.3256 39.7659C20.3256 39.7659 19.6087 45.5137 21.5686 45.5137C22.2856 45.5137 23.0026 44.1767 23.3277 43.4875V43.5013C23.3277 43.5013 23.3468 43.4599 23.385 43.3634C23.4251 43.2779 23.4634 43.1906 23.4998 43.1017V43.0741C23.7866 42.3574 24.4271 40.7171 25.3832 38.0017C26.6164 34.5007 27.802 30.1174 27.802 30.1174C27.802 30.1174 27.9167 31.1926 28.2705 32.9569C28.4808 34.0046 28.9396 35.1485 29.2934 36.265C29.0065 36.8439 28.8344 37.1749 28.8344 37.1749L28.844 37.1886C28.6146 37.6297 28.3564 38.0985 28.0889 38.567C27.1136 40.2486 25.9473 42.1647 25.7943 42.716C25.6126 43.3637 25.6509 43.8461 26.0047 44.2322C26.2628 44.5079 26.7217 44.5629 27.2092 44.5079C28.0889 44.4251 28.7007 44.1082 29.0067 43.9151C29.4847 43.667 30.0296 43.2948 30.5555 42.7434C31.5115 41.7236 32.0947 40.2763 32.0373 38.3466C32.0086 37.2853 31.7696 36.2377 31.4732 35.2453C31.5593 35.0661 31.6454 34.8867 31.7314 34.6939C33.242 31.5098 34.4084 28.0088 34.4084 28.0088C34.4084 28.0088 34.5231 29.0839 34.8769 30.8483C35.0584 31.7442 35.4218 32.723 35.7468 33.6879C34.3319 35.3557 33.4427 37.2854 33.1368 38.5535C32.5728 40.8967 33.0125 41.958 33.8443 42.2062C34.217 42.3164 34.7525 42.0683 35.154 41.8202C35.6511 41.5859 36.2534 41.1861 36.808 40.5935C37.7641 39.5735 38.682 38.1538 38.6341 36.2378C38.6055 35.3557 38.4429 34.4873 38.223 33.6603C39.4277 32.9435 40.9859 32.53 42.965 32.8746C47.2195 33.5914 48.0608 37.4232 47.8984 39.0221C47.7358 40.6212 46.8468 41.5032 46.5503 41.7789C46.2539 42.0408 46.1582 42.1374 46.187 42.3302C46.2252 42.6198 46.3591 42.6059 46.6172 42.5509C46.9709 42.468 48.8544 41.2414 48.9309 38.2919C49.0456 34.5008 46.5502 30.3657 42.1237 30.4069ZM9.3119 46.3546C7.9065 48.5738 5.9275 49.4146 5.08615 48.6979C4.17791 47.9398 4.53156 44.6731 6.2621 42.316C7.31375 40.8825 8.68095 39.5593 9.5796 38.746C9.7804 38.5668 10.0863 38.3051 10.4496 37.9879C10.507 37.933 10.5452 37.9053 10.5452 37.9053C10.6122 37.8501 10.6887 37.7812 10.7652 37.7123C11.4057 41.0755 10.7938 44.0252 9.3119 46.3546ZM19.5895 36.2788C19.1019 38.0017 18.0694 42.4263 17.448 42.1782C16.9125 41.9714 16.5875 38.622 17.3427 35.3139C17.7251 33.6459 18.5378 31.6612 19.0158 30.8892C19.7903 29.6487 20.6315 29.2352 20.8419 29.7452C21.0905 30.4069 19.8955 35.2036 19.5895 36.2788ZM28.0697 42.123C27.8594 42.2748 27.6681 42.3849 27.5821 42.3024C27.5152 42.2472 27.6681 42.0405 27.6681 42.0405C27.6681 42.0405 28.7293 40.4002 29.15 39.6421C29.389 39.2012 29.6758 38.6912 29.9818 38.1122V38.2775C29.9818 40.2622 28.6625 41.5855 28.0697 42.123ZM34.6091 39.9728C34.4561 39.8074 34.4753 39.2974 34.9915 37.6985C35.1924 37.0644 35.6511 36.0031 36.4446 34.9969C36.5402 35.4104 36.5978 35.81 36.5881 36.1823C36.5786 38.6634 35.3549 39.5869 34.6091 39.9728Z" fill="#CF649A"/>
</g>
<defs>
<clipPath id="clip0_2:29">
<rect width="49" height="53" fill="white"/>
</clipPath>
</defs>
</svg>
