<svg width="98" height="105" viewBox="0 0 98 105" fill="none" xmlns="http://www.w3.org/2000/svg">
<g clip-path="url(#clip0_23:2)">
<path d="M84.2474 60.2401C80.8248 60.2677 77.861 61.4416 75.3753 63.1896C74.4574 60.5954 73.5396 58.3286 73.3869 56.6358C73.2148 54.6697 73.0044 53.4679 73.2148 51.1197C73.4249 48.771 74.381 45.4395 74.381 45.1665C74.3616 44.9207 74.1704 43.7192 72.2012 43.6919C70.2319 43.6646 68.5299 44.238 68.3387 44.9753C68.1475 45.7126 67.7651 47.4057 67.5165 49.1533C67.1723 51.7202 63.5775 60.8136 61.5316 65.5923C60.8623 63.7354 60.2887 62.097 60.1738 60.786C60.0019 58.8201 59.7914 57.6183 60.0019 55.2702C60.2122 52.9215 61.1683 49.5903 61.1683 49.3172C61.1492 49.0714 60.958 47.8699 58.9887 47.8426C57.019 47.8153 55.3174 48.3887 55.1262 49.126C54.935 49.8633 54.7247 51.611 54.304 53.304C53.9023 54.9971 49.122 70.18 47.8791 74.1395C47.2481 76.1603 46.6938 77.7714 46.2921 78.8637C45.8905 79.956 46.273 78.9456 46.2347 79.0548C45.8905 79.9833 45.6993 80.5021 45.6993 80.5021V80.5297C45.4316 81.2124 45.1448 81.8675 45.0108 81.8675C44.9152 81.8675 44.724 80.0379 45.049 77.5259C45.7565 72.2553 47.4774 64.0361 47.4585 63.7357C47.4585 63.5992 47.7833 62.1516 46.3492 61.4146C44.9534 60.6773 44.4564 61.9061 44.3415 61.9061C44.2268 61.9061 44.1312 62.343 44.1312 62.343C44.1312 62.343 45.68 53.0861 41.1674 53.0861C38.3375 53.0861 34.4368 57.4826 32.5056 61.4968C31.2818 62.4525 28.6814 64.473 25.9279 66.6306C24.8763 67.4498 23.7864 68.3236 22.7538 69.1155L22.5437 68.7873C17.075 60.4586 6.95998 54.5602 7.38064 43.3642C7.53361 39.2954 8.52791 28.5636 26.8079 15.5654C41.7797 4.91553 53.7686 7.83741 55.8526 14.3365C58.8164 23.621 49.4471 40.8792 33.8827 43.3642C27.9551 44.3199 24.8382 41.0431 24.0544 39.8142C23.2322 38.5308 23.1175 38.4762 22.8116 38.722C22.3144 39.1043 22.6203 40.2512 22.8116 40.9338C23.2705 42.6542 25.1826 45.7126 28.4332 47.2418C31.282 48.5799 38.2423 49.3172 46.6556 44.6749C56.0823 39.4593 63.4439 24.9864 61.2832 12.8893C59.0843 0.573668 44.7817 -3.46781 31.2631 3.38632C23.2129 7.48241 14.4937 13.8723 8.22197 22.2557C0.764744 32.1955 -0.420765 40.8792 0.0763839 44.4838C1.81659 57.3455 14.226 65.7289 19.1975 71.9276C18.9489 72.1185 18.7195 72.3097 18.5091 72.4738C16.0234 74.2212 6.55844 81.294 4.18742 88.776C1.51047 97.2412 4.60808 103.331 6.67316 104.15C13.0596 106.69 19.599 102.129 23.1364 94.62C26.6545 87.1105 26.234 77.3618 24.6087 72.9107L24.5512 72.7468L26.5015 71.1084C27.7637 70.0434 29.0066 69.0604 30.0963 68.2136C29.4846 70.5893 29.0447 73.4019 28.8154 77.498C28.5477 82.3044 29.9244 88.5302 31.7409 90.9878C32.544 92.0526 33.5001 92.0801 34.0928 92.0801C36.1961 92.0801 37.1522 89.5949 38.2038 86.6187C39.5041 82.9868 40.6513 78.7815 40.6513 78.7815C40.6513 78.7815 39.2173 90.1686 43.1371 90.1686C44.5712 90.1686 46.0053 87.5198 46.6554 86.1545V86.1818C46.6554 86.1818 46.6936 86.0998 46.7701 85.9087C46.8503 85.7393 46.9269 85.5663 46.9996 85.3901V85.3355C47.5732 83.9155 48.8543 80.666 50.7664 75.2864C53.2328 68.3504 55.604 59.6666 55.604 59.6666C55.604 59.6666 55.8335 61.7966 56.541 65.292C56.9615 67.3676 57.8793 69.6338 58.5867 71.8457C58.0131 72.9926 57.6689 73.6483 57.6689 73.6483L57.6881 73.6756C57.2293 74.5494 56.7129 75.4781 56.1777 76.4063C54.2273 79.7378 51.8945 83.5338 51.5886 84.6261C51.2253 85.9092 51.3018 86.865 52.0093 87.6299C52.5255 88.176 53.4434 88.285 54.4185 88.176C56.1777 88.0119 57.4014 87.3841 58.0133 87.0015C58.9694 86.51 60.0593 85.7727 61.1109 84.6804C63.023 82.6599 64.1894 79.7927 64.0747 75.9697C64.0173 73.867 63.5393 71.7916 62.9465 69.8255C63.1186 69.4705 63.2909 69.1152 63.4628 68.7332C66.4839 62.425 68.8167 55.4892 68.8167 55.4892C68.8167 55.4892 69.0462 57.6191 69.7537 61.1145C70.1168 62.8895 70.8436 64.8285 71.4937 66.7401C68.6638 70.0442 66.8855 73.8673 66.2736 76.3795C65.1455 81.0218 66.025 83.1244 67.6886 83.616C68.4341 83.8344 69.5051 83.3429 70.308 82.8514C71.3023 82.3871 72.5069 81.595 73.6161 80.421C75.5282 78.4003 77.3639 75.5876 77.2682 71.7919C77.2109 70.0442 76.8858 68.3239 76.446 66.6854C78.8553 65.2655 81.9718 64.4462 85.9301 65.1289C94.439 66.5489 96.1216 74.1403 95.7968 77.308C95.4717 80.4759 93.6935 82.2233 93.1005 82.7694C92.5078 83.2883 92.3165 83.4797 92.3739 83.8617C92.4504 84.4355 92.7181 84.4079 93.2344 84.2989C93.9418 84.1348 97.7087 81.7047 97.8617 75.8612C98.0911 68.3506 93.1005 60.1585 84.2474 60.2401V60.2401ZM18.6238 91.8346C15.813 96.2311 11.855 97.8969 10.1723 96.4769C8.35582 94.975 9.06311 88.5032 12.5242 83.8336C14.6275 80.9936 17.3619 78.3721 19.1592 76.761C19.5608 76.406 20.1727 75.8875 20.8993 75.2591C21.014 75.1502 21.0905 75.0953 21.0905 75.0953C21.2243 74.986 21.3773 74.8495 21.5303 74.713C22.8114 81.376 21.5876 87.2197 18.6238 91.8346V91.8346ZM39.179 71.873C38.2038 75.2864 36.1388 84.0521 34.8959 83.5605C33.8249 83.1509 33.175 76.5153 34.6854 69.9615C35.4502 66.657 37.0755 62.7251 38.0316 61.1956C39.5806 58.7379 41.263 57.9187 41.6839 58.9291C42.181 60.2401 39.7909 69.743 39.179 71.873ZM56.1394 83.4513C55.7188 83.752 55.3363 83.9701 55.1643 83.8066C55.0304 83.6973 55.3362 83.2877 55.3362 83.2877C55.3362 83.2877 57.4586 80.0382 58.2999 78.5363C58.778 77.6627 59.3516 76.6523 59.9635 75.5052V75.8328C59.9637 79.7648 57.3249 82.3863 56.1394 83.4513ZM69.2181 79.1914C68.9121 78.8637 68.9506 77.8533 69.9829 74.6857C70.3847 73.4295 71.3023 71.3269 72.8893 69.3334C73.0805 70.1526 73.1955 70.9443 73.1761 71.6819C73.1572 76.5972 70.7097 78.4268 69.2181 79.1914Z" fill="#CF649A"/>
</g>
<defs>
<clipPath id="clip0_23:2">
<rect width="97.9" height="104.86" fill="white"/>
</clipPath>
</defs>
</svg>
